<svg width="428" height="60" viewBox="0 0 428 60" fill="none" xmlns="http://www.w3.org/2000/svg">
<path d="M12 34C12 25.1634 19.1634 18 28 18C36.8366 18 44 25.1634 44 34C44 42.8366 36.8366 50 28 50C19.1634 50 12 42.8366 12 34Z" fill="white"/>
<path d="M58.0263 40V30.7273H60.4773V32.3633H60.5859C60.7791 31.82 61.1011 31.3913 61.5518 31.0774C62.0026 30.7635 62.5419 30.6065 63.1697 30.6065C63.8056 30.6065 64.3469 30.7655 64.7937 31.0835C65.2404 31.3974 65.5382 31.824 65.6871 32.3633H65.7837C65.9729 31.832 66.315 31.4074 66.81 31.0895C67.3091 30.7675 67.8987 30.6065 68.5788 30.6065C69.4441 30.6065 70.1464 30.8822 70.6857 31.4336C71.229 31.981 71.5007 32.7577 71.5007 33.7639V40H68.935V34.271C68.935 33.7558 68.7982 33.3694 68.5245 33.1119C68.2508 32.8543 67.9087 32.7255 67.4982 32.7255C67.0314 32.7255 66.6671 32.8744 66.4055 33.1722C66.1439 33.466 66.0131 33.8544 66.0131 34.3374V40H63.5199V34.2166C63.5199 33.7618 63.3891 33.3996 63.1275 33.13C62.8699 32.8603 62.5298 32.7255 62.1072 32.7255C61.8215 32.7255 61.5639 32.798 61.3345 32.9428C61.1091 33.0837 60.93 33.2829 60.7972 33.5405C60.6644 33.794 60.598 34.0919 60.598 34.434V40H58.0263Z" fill="white"/>
<path d="M73.5321 40V30.7273H76.1039V40H73.5321ZM74.824 29.532C74.4417 29.532 74.1137 29.4052 73.84 29.1516C73.5704 28.8941 73.4355 28.5862 73.4355 28.228C73.4355 27.8738 73.5704 27.57 73.84 27.3164C74.1137 27.0588 74.4417 26.9301 74.824 26.9301C75.2064 26.9301 75.5324 27.0588 75.802 27.3164C76.0757 27.57 76.2125 27.8738 76.2125 28.228C76.2125 28.5862 76.0757 28.8941 75.802 29.1516C75.5324 29.4052 75.2064 29.532 74.824 29.532Z" fill="white"/>
<path d="M80.7357 27.6364V40H78.164V27.6364H80.7357Z" fill="white"/>
<path d="M85.44 40.1751C84.8484 40.1751 84.3211 40.0725 83.8583 39.8672C83.3955 39.6579 83.0292 39.35 82.7596 38.9435C82.494 38.533 82.3611 38.0219 82.3611 37.4102C82.3611 36.895 82.4557 36.4624 82.6449 36.1122C82.834 35.7621 83.0916 35.4804 83.4176 35.2671C83.7436 35.0538 84.1139 34.8928 84.5284 34.7841C84.947 34.6754 85.3857 34.599 85.8445 34.5547C86.3838 34.4984 86.8184 34.446 87.1484 34.3977C87.4785 34.3454 87.7179 34.269 87.8668 34.1683C88.0157 34.0677 88.0902 33.9188 88.0902 33.7216V33.6854C88.0902 33.303 87.9695 33.0072 87.728 32.798C87.4905 32.5887 87.1525 32.484 86.7138 32.484C86.2509 32.484 85.8827 32.5867 85.609 32.7919C85.3353 32.9931 85.1542 33.2467 85.0657 33.5526L82.6871 33.3594C82.8079 32.7959 83.0453 32.309 83.3995 31.8984C83.7537 31.4839 84.2105 31.166 84.7699 30.9446C85.3333 30.7192 85.9853 30.6065 86.7258 30.6065C87.241 30.6065 87.734 30.6669 88.2049 30.7877C88.6798 30.9084 89.1004 31.0955 89.4666 31.3491C89.8369 31.6026 90.1287 31.9286 90.342 32.3271C90.5553 32.7215 90.6619 33.1944 90.6619 33.7457V40H88.223V38.7141H88.1506C88.0017 39.0039 87.8024 39.2595 87.5529 39.4808C87.3034 39.6982 87.0035 39.8692 86.6534 39.994C86.3033 40.1147 85.8988 40.1751 85.44 40.1751ZM86.1765 38.4002C86.5548 38.4002 86.8888 38.3258 87.1786 38.1769C87.4684 38.0239 87.6958 37.8187 87.8608 37.5611C88.0258 37.3035 88.1083 37.0117 88.1083 36.6857V35.7017C88.0278 35.754 87.9171 35.8023 87.7763 35.8466C87.6394 35.8868 87.4845 35.9251 87.3114 35.9613C87.1384 35.9935 86.9653 36.0237 86.7923 36.0519C86.6192 36.076 86.4622 36.0981 86.3214 36.1183C86.0195 36.1625 85.7559 36.233 85.5305 36.3296C85.3052 36.4261 85.1301 36.5569 85.0053 36.722C84.8806 36.8829 84.8182 37.0842 84.8182 37.3257C84.8182 37.6758 84.945 37.9434 85.1985 38.1286C85.4561 38.3097 85.7821 38.4002 86.1765 38.4002Z" fill="white"/>
<path d="M95.2289 34.6392V40H92.6571V30.7273H95.1081V32.3633H95.2168C95.422 31.824 95.7662 31.3974 96.2491 31.0835C96.7321 30.7655 97.3176 30.6065 98.0059 30.6065C98.6498 30.6065 99.2112 30.7474 99.6902 31.0291C100.169 31.3109 100.541 31.7133 100.807 32.2365C101.073 32.7557 101.205 33.3755 101.205 34.0959V40H98.6337V34.5547C98.6377 33.9872 98.4928 33.5445 98.199 33.2266C97.9052 32.9046 97.5008 32.7436 96.9856 32.7436C96.6395 32.7436 96.3336 32.8181 96.068 32.967C95.8064 33.1159 95.6011 33.3332 95.4522 33.619C95.3073 33.9007 95.2329 34.2408 95.2289 34.6392Z" fill="white"/>
<path d="M107.41 43.6705C106.577 43.6705 105.862 43.5558 105.267 43.3264C104.675 43.101 104.204 42.7931 103.854 42.4027C103.504 42.0123 103.277 41.5736 103.172 41.0867L105.551 40.7667C105.623 40.9518 105.738 41.1249 105.895 41.2859C106.052 41.4469 106.259 41.5757 106.516 41.6722C106.778 41.7729 107.096 41.8232 107.47 41.8232C108.03 41.8232 108.49 41.6863 108.853 41.4127C109.219 41.143 109.402 40.6902 109.402 40.0543V38.358H109.293C109.181 38.6155 109.012 38.859 108.786 39.0884C108.561 39.3178 108.271 39.505 107.917 39.6499C107.563 39.7948 107.14 39.8672 106.649 39.8672C105.953 39.8672 105.319 39.7062 104.748 39.3842C104.18 39.0583 103.727 38.5612 103.389 37.8931C103.055 37.221 102.888 36.3718 102.888 35.3455C102.888 34.2951 103.059 33.4177 103.401 32.7134C103.743 32.0091 104.198 31.4819 104.766 31.1318C105.337 30.7816 105.963 30.6065 106.643 30.6065C107.162 30.6065 107.597 30.6951 107.947 30.8722C108.297 31.0452 108.579 31.2626 108.792 31.5242C109.01 31.7817 109.177 32.0353 109.293 32.2848H109.39V30.7273H111.944V40.0906C111.944 40.8794 111.75 41.5394 111.364 42.0707C110.978 42.6019 110.442 43.0004 109.758 43.266C109.078 43.5356 108.295 43.6705 107.41 43.6705ZM107.464 37.9354C107.879 37.9354 108.229 37.8328 108.515 37.6275C108.804 37.4182 109.026 37.1204 109.179 36.734C109.336 36.3436 109.414 35.8768 109.414 35.3335C109.414 34.7901 109.338 34.3193 109.185 33.9208C109.032 33.5184 108.81 33.2065 108.521 32.9851C108.231 32.7637 107.879 32.6531 107.464 32.6531C107.042 32.6531 106.685 32.7678 106.396 32.9972C106.106 33.2225 105.887 33.5365 105.738 33.9389C105.589 34.3414 105.514 34.8062 105.514 35.3335C105.514 35.8687 105.589 36.3316 105.738 36.722C105.891 37.1083 106.11 37.4082 106.396 37.6215C106.685 37.8307 107.042 37.9354 107.464 37.9354Z" fill="white"/>
<path d="M116.562 27.6364V40H113.99V27.6364H116.562Z" fill="white"/>
<path d="M121.266 40.1751C120.675 40.1751 120.147 40.0725 119.684 39.8672C119.222 39.6579 118.855 39.35 118.586 38.9435C118.32 38.533 118.187 38.0219 118.187 37.4102C118.187 36.895 118.282 36.4624 118.471 36.1122C118.66 35.7621 118.918 35.4804 119.244 35.2671C119.57 35.0538 119.94 34.8928 120.355 34.7841C120.773 34.6754 121.212 34.599 121.671 34.5547C122.21 34.4984 122.645 34.446 122.975 34.3977C123.305 34.3454 123.544 34.269 123.693 34.1683C123.842 34.0677 123.916 33.9188 123.916 33.7216V33.6854C123.916 33.303 123.796 33.0072 123.554 32.798C123.317 32.5887 122.979 32.484 122.54 32.484C122.077 32.484 121.709 32.5867 121.435 32.7919C121.162 32.9931 120.98 33.2467 120.892 33.5526L118.513 33.3594C118.634 32.7959 118.872 32.309 119.226 31.8984C119.58 31.4839 120.037 31.166 120.596 30.9446C121.16 30.7192 121.811 30.6065 122.552 30.6065C123.067 30.6065 123.56 30.6669 124.031 30.7877C124.506 30.9084 124.927 31.0955 125.293 31.3491C125.663 31.6026 125.955 31.9286 126.168 32.3271C126.381 32.7215 126.488 33.1944 126.488 33.7457V40H124.049V38.7141H123.977C123.828 39.0039 123.629 39.2595 123.379 39.4808C123.13 39.6982 122.83 39.8692 122.48 39.994C122.129 40.1147 121.725 40.1751 121.266 40.1751ZM122.003 38.4002C122.381 38.4002 122.715 38.3258 123.005 38.1769C123.295 38.0239 123.522 37.8187 123.687 37.5611C123.852 37.3035 123.934 37.0117 123.934 36.6857V35.7017C123.854 35.754 123.743 35.8023 123.602 35.8466C123.466 35.8868 123.311 35.9251 123.138 35.9613C122.965 35.9935 122.791 36.0237 122.618 36.0519C122.445 36.076 122.288 36.0981 122.148 36.1183C121.846 36.1625 121.582 36.233 121.357 36.3296C121.131 36.4261 120.956 36.5569 120.831 36.722C120.707 36.8829 120.644 37.0842 120.644 37.3257C120.644 37.6758 120.771 37.9434 121.025 38.1286C121.282 38.3097 121.608 38.4002 122.003 38.4002Z" fill="white"/>
<path d="M131.9 40.1509C131.196 40.1509 130.558 39.9698 129.987 39.6076C129.419 39.2414 128.968 38.7041 128.634 37.9958C128.304 37.2834 128.139 36.41 128.139 35.3757C128.139 34.3132 128.31 33.4298 128.652 32.7255C128.994 32.0172 129.449 31.4879 130.017 31.1378C130.588 30.7836 131.214 30.6065 131.894 30.6065C132.413 30.6065 132.846 30.6951 133.192 30.8722C133.542 31.0452 133.824 31.2626 134.037 31.5242C134.255 31.7817 134.42 32.0353 134.532 32.2848H134.611V27.6364H137.176V40H134.641V38.5149H134.532C134.412 38.7725 134.241 39.0281 134.019 39.2816C133.802 39.5311 133.518 39.7384 133.168 39.9034C132.822 40.0684 132.399 40.1509 131.9 40.1509ZM132.715 38.1044C133.13 38.1044 133.48 37.9917 133.766 37.7663C134.055 37.5369 134.277 37.217 134.43 36.8065C134.587 36.396 134.665 35.915 134.665 35.3636C134.665 34.8123 134.589 34.3333 134.436 33.9269C134.283 33.5204 134.061 33.2065 133.772 32.9851C133.482 32.7637 133.13 32.6531 132.715 32.6531C132.293 32.6531 131.936 32.7678 131.647 32.9972C131.357 33.2266 131.138 33.5445 130.989 33.951C130.84 34.3575 130.765 34.8284 130.765 35.3636C130.765 35.9029 130.84 36.3799 130.989 36.7944C131.142 37.2049 131.361 37.5269 131.647 37.7603C131.936 37.9897 132.293 38.1044 132.715 38.1044Z" fill="white"/>
<path d="M139.291 40V30.7273H141.863V40H139.291ZM140.583 29.532C140.2 29.532 139.872 29.4052 139.599 29.1516C139.329 28.8941 139.194 28.5862 139.194 28.228C139.194 27.8738 139.329 27.57 139.599 27.3164C139.872 27.0588 140.2 26.9301 140.583 26.9301C140.965 26.9301 141.291 27.0588 141.561 27.3164C141.834 27.57 141.971 27.8738 141.971 28.228C141.971 28.5862 141.834 28.8941 141.561 29.1516C141.291 29.4052 140.965 29.532 140.583 29.532Z" fill="white"/>
<path d="M151.638 33.3715L149.284 33.5163C149.243 33.3151 149.157 33.134 149.024 32.973C148.891 32.808 148.716 32.6772 148.499 32.5806C148.285 32.48 148.03 32.4297 147.732 32.4297C147.334 32.4297 146.998 32.5142 146.724 32.6832C146.45 32.8483 146.313 33.0696 146.313 33.3473C146.313 33.5687 146.402 33.7558 146.579 33.9087C146.756 34.0617 147.06 34.1844 147.491 34.277L149.169 34.6151C150.07 34.8002 150.742 35.098 151.185 35.5085C151.628 35.919 151.849 36.4583 151.849 37.1264C151.849 37.7342 151.67 38.2674 151.312 38.7262C150.958 39.185 150.471 39.5432 149.851 39.8008C149.235 40.0543 148.525 40.1811 147.72 40.1811C146.492 40.1811 145.514 39.9256 144.786 39.4144C144.062 38.8993 143.637 38.199 143.512 37.3136L146.042 37.1808C146.118 37.5551 146.303 37.8408 146.597 38.038C146.891 38.2312 147.267 38.3278 147.726 38.3278C148.177 38.3278 148.539 38.2413 148.813 38.0682C149.09 37.8911 149.231 37.6637 149.235 37.386C149.231 37.1526 149.133 36.9614 148.939 36.8125C148.746 36.6596 148.448 36.5429 148.046 36.4624L146.44 36.1424C145.535 35.9613 144.86 35.6474 144.418 35.2007C143.979 34.7539 143.76 34.1844 143.76 33.4922C143.76 32.8966 143.921 32.3834 144.243 31.9528C144.569 31.5221 145.026 31.1901 145.613 30.9567C146.205 30.7233 146.897 30.6065 147.69 30.6065C148.861 30.6065 149.783 30.8541 150.455 31.3491C151.131 31.8441 151.525 32.5182 151.638 33.3715Z" fill="white"/>
<g opacity="0.5">
<path d="M173.445 40V30.7273H175.534V32.3029H175.643C175.836 31.7717 176.156 31.3571 176.602 31.0593C177.049 30.7575 177.582 30.6065 178.202 30.6065C178.83 30.6065 179.359 30.7595 179.79 31.0653C180.225 31.3672 180.53 31.7797 180.708 32.3029H180.804C181.009 31.7878 181.356 31.3772 181.843 31.0714C182.334 30.7615 182.915 30.6065 183.587 30.6065C184.44 30.6065 185.137 30.8762 185.676 31.4155C186.215 31.9548 186.485 32.7416 186.485 33.7759V40H184.293V34.114C184.293 33.5385 184.141 33.1179 183.835 32.8523C183.529 32.5826 183.155 32.4478 182.712 32.4478C182.185 32.4478 181.772 32.6128 181.474 32.9428C181.18 33.2688 181.034 33.6934 181.034 34.2166V40H178.89V34.0234C178.89 33.5445 178.746 33.1622 178.456 32.8764C178.17 32.5907 177.796 32.4478 177.333 32.4478C177.019 32.4478 176.733 32.5283 176.476 32.6893C176.218 32.8462 176.013 33.0696 175.86 33.3594C175.707 33.6451 175.63 33.9792 175.63 34.3615V40H173.445Z" fill="white"/>
<path fill-rule="evenodd" clip-rule="evenodd" d="M161.875 37.706V35.9251L167.121 27.6364L169.911 27.6364V35.8647H171.492V37.706H169.911V40H167.773V37.706H161.875ZM167.798 30.1719L164.169 35.7681V35.8647H167.798V30.1719Z" fill="white"/>
</g>
<path fill-rule="evenodd" clip-rule="evenodd" d="M398.293 24.2929C398.683 23.9024 399.317 23.9024 399.707 24.2929L408 32.5858L416.293 24.2929C416.683 23.9024 417.317 23.9024 417.707 24.2929C418.098 24.6834 418.098 25.3166 417.707 25.7071L409.414 34L417.707 42.2929C418.098 42.6834 418.098 43.3166 417.707 43.7071C417.317 44.0976 416.683 44.0976 416.293 43.7071L408 35.4142L399.707 43.7071C399.317 44.0976 398.683 44.0976 398.293 43.7071C397.902 43.3166 397.902 42.6834 398.293 42.2929L406.586 34L398.293 25.7071C397.902 25.3166 397.902 24.6834 398.293 24.2929Z" fill="white"/>
<path d="M364 34C364 35.1046 363.105 36 362 36C360.895 36 360 35.1046 360 34C360 32.8954 360.895 32 362 32C363.105 32 364 32.8954 364 34Z" fill="white"/>
<path d="M370 34C370 35.1046 369.105 36 368 36C366.895 36 366 35.1046 366 34C366 32.8954 366.895 32 368 32C369.105 32 370 32.8954 370 34Z" fill="white"/>
<path d="M376 34C376 35.1046 375.105 36 374 36C372.895 36 372 35.1046 372 34C372 32.8954 372.895 32 374 32C375.105 32 376 32.8954 376 34Z" fill="white"/>
<path opacity="0.4" d="M8 9C8 8.44772 8.44772 8 9 8H419C419.552 8 420 8.44772 420 9V9C420 9.55228 419.552 10 419 10H8.99999C8.44771 10 8 9.55228 8 9V9Z" fill="white"/>
<path opacity="0.7" d="M8 9C8 8.44772 8.44772 8 9 8H319C319.552 8 320 8.44772 320 9V9C320 9.55228 319.552 10 319 10H9C8.44771 10 8 9.55228 8 9V9Z" fill="white"/>
</svg>
