<svg width="92" height="24" viewBox="0 0 92 24" fill="none" xmlns="http://www.w3.org/2000/svg">
<path fill-rule="evenodd" clip-rule="evenodd" d="M7.23757 21.6553C8.37223 21.7483 9.83592 21.75 11.9675 21.75C14.099 21.75 15.5627 21.7483 16.6974 21.6553C17.8059 21.5644 18.4013 21.3979 18.8323 21.1777C19.8175 20.6744 20.6184 19.8713 21.1204 18.8834C21.34 18.4514 21.506 17.8543 21.5966 16.7428C21.6893 15.605 21.6911 14.1374 21.6911 12C21.6911 9.86265 21.6893 8.39498 21.5966 7.25724C21.506 6.14574 21.34 5.54867 21.1204 5.11655C20.6184 4.1287 19.8175 3.32555 18.8323 2.82221C18.4013 2.60204 17.8059 2.43552 16.6974 2.34471C15.5627 2.25175 14.099 2.25 11.9675 2.25C9.83592 2.25 8.37223 2.25175 7.23757 2.34471C6.12909 2.43552 5.53363 2.60204 5.10269 2.82221C4.11751 3.32555 3.31654 4.1287 2.81456 5.11655C2.59499 5.54867 2.42892 6.14574 2.33836 7.25724C2.24565 8.39498 2.2439 9.86265 2.2439 12C2.2439 14.1374 2.24565 15.605 2.33836 16.7428C2.42892 17.8543 2.59499 18.4514 2.81456 18.8834C3.31654 19.8713 4.11751 20.6744 5.10269 21.1777C5.53363 21.3979 6.12909 21.5644 7.23757 21.6553ZM0.815232 4.09507C0 5.69941 0 7.79962 0 12C0 16.2004 0 18.3006 0.815232 19.9049C1.53234 21.3161 2.67658 22.4635 4.08397 23.1826C5.68396 24 7.77849 24 11.9675 24C16.1565 24 18.251 24 19.851 23.1826C21.2584 22.4635 22.4026 21.3161 23.1198 19.9049C23.935 18.3006 23.935 16.2004 23.935 12C23.935 7.79962 23.935 5.69941 23.1198 4.09507C22.4026 2.68385 21.2584 1.5365 19.851 0.817448C18.251 0 16.1565 0 11.9675 0C7.77849 0 5.68396 0 4.08397 0.817448C2.67658 1.5365 1.53234 2.68385 0.815232 4.09507Z" fill="#6378EC"/>
<path fill-rule="evenodd" clip-rule="evenodd" d="M8.67413 8.32161C9.09561 8.09466 9.59383 7.98749 10.1582 7.98749C10.8452 7.98749 11.4204 8.08521 11.8667 8.29934C12.2032 8.45879 12.4878 8.67479 12.7176 8.94659C12.9776 8.66804 13.2744 8.44829 13.6082 8.29049C14.0444 8.08431 14.5665 7.98749 15.1646 7.98749C15.6389 7.98749 16.0672 8.04614 16.4457 8.16846C16.8225 8.28846 17.1417 8.45474 17.3932 8.67411C17.6374 8.88164 17.8367 9.13236 17.9913 9.42381C18.1424 9.70859 18.2494 10.0018 18.3107 10.3032C18.3707 10.5979 18.4 10.9132 18.4 11.2485V15.561C18.4 15.8867 18.2774 16.1692 18.0403 16.3925C17.81 16.609 17.5264 16.7164 17.2058 16.7164C16.8735 16.7164 16.581 16.6122 16.3518 16.3898L16.3487 16.3868C16.1273 16.1647 16.0201 15.8824 16.0201 15.561V11.5939C16.0201 11.0756 15.9015 10.7359 15.7106 10.5265C15.5237 10.3214 15.2271 10.1971 14.7698 10.1971C14.2147 10.1971 13.8606 10.3336 13.649 10.5535C13.4325 10.7845 13.3096 11.1145 13.3096 11.577V15.561C13.3096 15.8867 13.187 16.1692 12.9499 16.3925C12.7196 16.609 12.436 16.7164 12.1155 16.7164C11.7831 16.7164 11.4905 16.6122 11.2613 16.3898L11.2583 16.3868C11.0368 16.1647 10.9296 15.8824 10.9296 15.561V11.5939C10.9296 11.076 10.8105 10.7365 10.6185 10.527C10.4304 10.3216 10.1315 10.1971 9.67102 10.1971C9.14243 10.1971 8.79358 10.3336 8.57405 10.5613C8.35288 10.7907 8.21921 11.1577 8.21921 11.7118V15.561C8.21921 15.8879 8.10246 16.1719 7.86767 16.3927C7.63625 16.6102 7.3495 16.7164 7.025 16.7164C6.7005 16.7164 6.41375 16.6102 6.18235 16.3927C5.94754 16.1719 5.83081 15.8879 5.83081 15.561V9.27756C5.83081 8.95094 5.94709 8.66481 6.17629 8.43501L6.17913 8.43209C6.41282 8.20491 6.69942 8.08859 7.025 8.08859C7.35007 8.08859 7.6349 8.20469 7.86385 8.43351C7.95608 8.52344 8.03065 8.62229 8.08727 8.72901C8.25556 8.57534 8.45198 8.43981 8.67413 8.32161Z" fill="#6378EC"/>
<path d="M32.2274 15.75V8.38635H34.1685V9.68557H34.2546C34.4076 9.2541 34.6626 8.91367 35.0196 8.66445C35.3766 8.41515 35.8037 8.2905 36.3009 8.2905C36.8045 8.2905 37.2332 8.41672 37.587 8.66917C37.9408 8.91847 38.1767 9.25725 38.2946 9.68557H38.3711C38.5209 9.2637 38.7918 8.9265 39.1839 8.67397C39.5791 8.4183 40.0461 8.2905 40.5847 8.2905C41.27 8.2905 41.8262 8.50942 42.2533 8.94727C42.6836 9.3819 42.8987 9.99877 42.8987 10.7977V15.75H40.8668V11.2004C40.8668 10.7914 40.7584 10.4845 40.5417 10.28C40.3249 10.0754 40.054 9.9732 39.7289 9.9732C39.3592 9.9732 39.0707 10.0915 38.8635 10.3279C38.6563 10.5613 38.5528 10.8697 38.5528 11.2532V15.75H36.5782V11.1573C36.5782 10.7962 36.4746 10.5085 36.2674 10.2944C36.0634 10.0802 35.7941 9.9732 35.4595 9.9732C35.2331 9.9732 35.0292 10.0307 34.8475 10.1458C34.669 10.2576 34.5271 10.4158 34.422 10.6204C34.3168 10.8217 34.2642 11.0582 34.2642 11.3299V15.75H32.2274Z" fill="#6378EC"/>
<path d="M47.8255 15.8938C47.0829 15.8938 46.4406 15.7356 45.8988 15.4192C45.3601 15.0996 44.9441 14.6554 44.6509 14.0865C44.3577 13.5144 44.2111 12.8512 44.2111 12.097C44.2111 11.3363 44.3577 10.6715 44.6509 10.1026C44.9441 9.53055 45.3601 9.08632 45.8988 8.7699C46.4406 8.45025 47.0829 8.2905 47.8255 8.2905C48.5682 8.2905 49.2088 8.45025 49.7475 8.7699C50.2893 9.08632 50.7069 9.53055 51.0001 10.1026C51.2934 10.6715 51.44 11.3363 51.44 12.097C51.44 12.8512 51.2934 13.5144 51.0001 14.0865C50.7069 14.6554 50.2893 15.0996 49.7475 15.4192C49.2088 15.7356 48.5682 15.8938 47.8255 15.8938ZM47.8351 14.3118C48.173 14.3118 48.455 14.2159 48.6814 14.0242C48.9076 13.8292 49.0782 13.5639 49.1929 13.2283C49.3109 12.8927 49.3698 12.5108 49.3698 12.0826C49.3698 11.6543 49.3109 11.2723 49.1929 10.9368C49.0782 10.6012 48.9076 10.336 48.6814 10.141C48.455 9.94605 48.173 9.84855 47.8351 9.84855C47.494 9.84855 47.2072 9.94605 46.9745 10.141C46.745 10.336 46.5713 10.6012 46.4534 10.9368C46.3387 11.2723 46.2813 11.6543 46.2813 12.0826C46.2813 12.5108 46.3387 12.8927 46.4534 13.2283C46.5713 13.5639 46.745 13.8292 46.9745 14.0242C47.2072 14.2159 47.494 14.3118 47.8351 14.3118Z" fill="#6378EC"/>
<path d="M52.7644 15.75V5.93182H54.8011V11.1813H54.9111L57.2634 8.38636H59.6013L56.8776 11.5761L59.7399 15.75H57.3542L55.353 12.7802L54.8011 13.4121V15.75H52.7644Z" fill="#6378EC"/>
<path d="M63.6162 15.8938C62.8735 15.8938 62.2313 15.7356 61.6894 15.4192C61.1508 15.0996 60.7349 14.6554 60.4416 14.0865C60.1484 13.5144 60.0017 12.8512 60.0017 12.097C60.0017 11.3363 60.1484 10.6715 60.4416 10.1026C60.7349 9.53055 61.1508 9.08632 61.6894 8.7699C62.2313 8.45025 62.8735 8.2905 63.6162 8.2905C64.3588 8.2905 64.9996 8.45025 65.5382 8.7699C66.0801 9.08632 66.4976 9.53055 66.7908 10.1026C67.0841 10.6715 67.2307 11.3363 67.2307 12.097C67.2307 12.8512 67.0841 13.5144 66.7908 14.0865C66.4976 14.6554 66.0801 15.0996 65.5382 15.4192C64.9996 15.7356 64.3588 15.8938 63.6162 15.8938ZM63.6258 14.3118C63.9636 14.3118 64.2457 14.2159 64.472 14.0242C64.6983 13.8292 64.8688 13.5639 64.9835 13.2283C65.1015 12.8927 65.1605 12.5108 65.1605 12.0826C65.1605 11.6543 65.1015 11.2723 64.9835 10.9368C64.8688 10.6012 64.6983 10.336 64.472 10.141C64.2457 9.94605 63.9636 9.84855 63.6258 9.84855C63.2847 9.84855 62.9978 9.94605 62.7652 10.141C62.5357 10.336 62.362 10.6012 62.244 10.9368C62.1293 11.2723 62.0719 11.6543 62.0719 12.0826C62.0719 12.5108 62.1293 12.8927 62.244 13.2283C62.362 13.5639 62.5357 13.8292 62.7652 14.0242C62.9978 14.2159 63.2847 14.3118 63.6258 14.3118Z" fill="#6378EC"/>
<path d="M68.5549 18.5113V8.38635H70.563V9.62325H70.6538C70.743 9.4251 70.8721 9.22372 71.0411 9.0192C71.2132 8.81145 71.4363 8.63887 71.7105 8.5014C71.9877 8.36077 72.3319 8.2905 72.7431 8.2905C73.2786 8.2905 73.7727 8.43112 74.2253 8.71237C74.6779 8.9904 75.0398 9.4107 75.3106 9.9732C75.5813 10.5325 75.7167 11.234 75.7167 12.0778C75.7167 12.8992 75.5843 13.5927 75.3203 14.1583C75.0585 14.7208 74.7017 15.1475 74.2491 15.4384C73.7998 15.726 73.2962 15.8698 72.7383 15.8698C72.3431 15.8698 72.0069 15.8043 71.7295 15.6733C71.4554 15.5422 71.2307 15.3777 71.0554 15.1795C70.8801 14.9782 70.7463 14.7752 70.6538 14.5707H70.5916V18.5113H68.5549ZM70.5486 12.0682C70.5486 12.506 70.6092 12.8879 70.7303 13.2139C70.8514 13.54 71.0267 13.794 71.2562 13.9762C71.4857 14.1552 71.7646 14.2447 72.0929 14.2447C72.4244 14.2447 72.7049 14.1535 72.9344 13.9714C73.1638 13.786 73.3376 13.5304 73.4555 13.2043C73.5766 12.8752 73.6372 12.4964 73.6372 12.0682C73.6372 11.6431 73.5782 11.2692 73.4603 10.9464C73.3424 10.6236 73.1686 10.3711 72.9391 10.1889C72.7097 10.0067 72.4276 9.91567 72.0929 9.91567C71.7614 9.91567 71.4809 10.0036 71.2514 10.1793C71.0252 10.3551 70.8514 10.6044 70.7303 10.9272C70.6092 11.25 70.5486 11.6303 70.5486 12.0682Z" fill="#6378EC"/>
<path d="M78.2651 15.8747C77.9494 15.8747 77.6787 15.7628 77.4528 15.5391C77.2291 15.3121 77.1177 15.0405 77.1177 14.7241C77.1177 14.4109 77.2291 14.1424 77.4528 13.9187C77.6787 13.6949 77.9494 13.5831 78.2651 13.5831C78.571 13.5831 78.8387 13.6949 79.0684 13.9187C79.298 14.1424 79.4124 14.4109 79.4124 14.7241C79.4124 14.935 79.3586 15.1284 79.2501 15.3041C79.1447 15.4768 79.0063 15.6157 78.8343 15.7212C78.6622 15.8235 78.4722 15.8747 78.2651 15.8747Z" fill="#6378EC"/>
<path d="M81.085 15.75V8.38635H83.1217V15.75H81.085ZM82.1082 7.43714C81.8053 7.43714 81.5457 7.33647 81.3288 7.13511C81.1149 6.93057 81.0087 6.68607 81.0087 6.40163C81.0087 6.12038 81.1149 5.87908 81.3288 5.67773C81.5457 5.47318 81.8053 5.37091 82.1082 5.37091C82.4111 5.37091 82.6691 5.47318 82.8823 5.67773C83.0992 5.87908 83.2077 6.12038 83.2077 6.40163C83.2077 6.68607 83.0992 6.93057 82.8823 7.13511C82.6691 7.33647 82.4111 7.43714 82.1082 7.43714Z" fill="#6378EC"/>
<path d="M88.071 15.8938C87.3282 15.8938 86.6865 15.7356 86.1442 15.4192C85.6057 15.0996 85.1898 14.6554 84.8966 14.0865C84.6034 13.5144 84.4568 12.8512 84.4568 12.097C84.4568 11.3363 84.6034 10.6715 84.8966 10.1026C85.1898 9.53055 85.6057 9.08632 86.1442 8.7699C86.6865 8.45025 87.3282 8.2905 88.071 8.2905C88.8137 8.2905 89.4547 8.45025 89.9932 8.7699C90.5348 9.08632 90.9529 9.53055 91.2461 10.1026C91.5393 10.6715 91.6859 11.3363 91.6859 12.097C91.6859 12.8512 91.5393 13.5144 91.2461 14.0865C90.9529 14.6554 90.5348 15.0996 89.9932 15.4192C89.4547 15.7356 88.8137 15.8938 88.071 15.8938ZM88.0807 14.3118C88.4188 14.3118 88.7008 14.2159 88.9274 14.0242C89.1533 13.8292 89.3238 13.5639 89.4383 13.2283C89.5564 12.8927 89.6155 12.5108 89.6155 12.0826C89.6155 11.6543 89.5564 11.2723 89.4383 10.9368C89.3238 10.6012 89.1533 10.336 88.9274 10.141C88.7008 9.94605 88.4188 9.84855 88.0807 9.84855C87.7396 9.84855 87.4531 9.94605 87.2205 10.141C86.9909 10.336 86.8166 10.6012 86.6992 10.9368C86.584 11.2723 86.5272 11.6543 86.5272 12.0826C86.5272 12.5108 86.584 12.8927 86.6992 13.2283C86.8166 13.5639 86.9909 13.8292 87.2205 14.0242C87.4531 14.2159 87.7396 14.3118 88.0807 14.3118Z" fill="#6378EC"/>
</svg>
