<svg width="77" height="24" viewBox="0 0 77 24" fill="none" xmlns="http://www.w3.org/2000/svg">
<path fill-rule="evenodd" clip-rule="evenodd" d="M7.23757 21.6553C8.37223 21.7483 9.83592 21.75 11.9675 21.75C14.099 21.75 15.5627 21.7483 16.6974 21.6553C17.8059 21.5644 18.4013 21.3979 18.8323 21.1777C19.8175 20.6744 20.6184 19.8713 21.1204 18.8834C21.34 18.4514 21.506 17.8543 21.5966 16.7428C21.6893 15.605 21.6911 14.1374 21.6911 12C21.6911 9.86265 21.6893 8.39498 21.5966 7.25724C21.506 6.14574 21.34 5.54867 21.1204 5.11655C20.6184 4.1287 19.8175 3.32555 18.8323 2.82221C18.4013 2.60204 17.8059 2.43552 16.6974 2.34471C15.5627 2.25175 14.099 2.25 11.9675 2.25C9.83592 2.25 8.37223 2.25175 7.23757 2.34471C6.12909 2.43552 5.53363 2.60204 5.10269 2.82221C4.11751 3.32555 3.31654 4.1287 2.81456 5.11655C2.59499 5.54867 2.42892 6.14574 2.33836 7.25724C2.24565 8.39498 2.2439 9.86265 2.2439 12C2.2439 14.1374 2.24565 15.605 2.33836 16.7428C2.42892 17.8543 2.59499 18.4514 2.81456 18.8834C3.31654 19.8713 4.11751 20.6744 5.10269 21.1777C5.53363 21.3979 6.12909 21.5644 7.23757 21.6553ZM0.815232 4.09507C0 5.69941 0 7.79962 0 12C0 16.2004 0 18.3006 0.815232 19.9049C1.53234 21.3161 2.67658 22.4635 4.08397 23.1826C5.68396 24 7.77849 24 11.9675 24C16.1565 24 18.251 24 19.851 23.1826C21.2584 22.4635 22.4026 21.3161 23.1198 19.9049C23.935 18.3006 23.935 16.2004 23.935 12C23.935 7.79962 23.935 5.69941 23.1198 4.09507C22.4026 2.68385 21.2584 1.5365 19.851 0.817448C18.251 0 16.1565 0 11.9675 0C7.77849 0 5.68396 0 4.08397 0.817448C2.67658 1.5365 1.53234 2.68385 0.815232 4.09507Z" fill="#38424B"/>
<path fill-rule="evenodd" clip-rule="evenodd" d="M8.67413 8.32161C9.09561 8.09466 9.59383 7.98749 10.1582 7.98749C10.8452 7.98749 11.4204 8.08521 11.8667 8.29934C12.2032 8.45879 12.4878 8.67479 12.7176 8.94659C12.9776 8.66804 13.2744 8.44829 13.6082 8.29049C14.0444 8.08431 14.5665 7.98749 15.1646 7.98749C15.6389 7.98749 16.0672 8.04614 16.4457 8.16846C16.8225 8.28846 17.1417 8.45474 17.3932 8.67411C17.6374 8.88164 17.8367 9.13236 17.9913 9.42381C18.1424 9.70859 18.2494 10.0018 18.3107 10.3032C18.3707 10.5979 18.4 10.9132 18.4 11.2485V15.561C18.4 15.8867 18.2774 16.1692 18.0403 16.3925C17.81 16.609 17.5264 16.7164 17.2058 16.7164C16.8735 16.7164 16.581 16.6122 16.3518 16.3898L16.3487 16.3868C16.1273 16.1647 16.0201 15.8824 16.0201 15.561V11.5939C16.0201 11.0756 15.9015 10.7359 15.7106 10.5265C15.5237 10.3214 15.2271 10.1971 14.7698 10.1971C14.2147 10.1971 13.8606 10.3336 13.649 10.5535C13.4325 10.7845 13.3096 11.1145 13.3096 11.577V15.561C13.3096 15.8867 13.187 16.1692 12.9499 16.3925C12.7196 16.609 12.436 16.7164 12.1155 16.7164C11.7831 16.7164 11.4905 16.6122 11.2613 16.3898L11.2583 16.3868C11.0368 16.1647 10.9296 15.8824 10.9296 15.561V11.5939C10.9296 11.076 10.8105 10.7365 10.6185 10.527C10.4304 10.3216 10.1315 10.1971 9.67102 10.1971C9.14243 10.1971 8.79358 10.3336 8.57405 10.5613C8.35288 10.7907 8.21921 11.1577 8.21921 11.7118V15.561C8.21921 15.8879 8.10246 16.1719 7.86767 16.3927C7.63625 16.6102 7.3495 16.7164 7.025 16.7164C6.7005 16.7164 6.41375 16.6102 6.18235 16.3927C5.94754 16.1719 5.83081 15.8879 5.83081 15.561V9.27756C5.83081 8.95094 5.94709 8.66481 6.17629 8.43501L6.17913 8.43209C6.41282 8.20491 6.69942 8.08859 7.025 8.08859C7.35007 8.08859 7.6349 8.20469 7.86385 8.43351C7.95608 8.52344 8.03065 8.62229 8.08727 8.72901C8.25556 8.57534 8.45198 8.43981 8.67413 8.32161Z" fill="#38424B"/>
<path d="M31.8452 16V8.36362H33.8637V9.71092H33.9532C34.1123 9.26348 34.3774 8.9105 34.7486 8.65197C35.1198 8.39345 35.564 8.26419 36.081 8.26419C36.6047 8.26419 37.0505 8.39511 37.4184 8.65695C37.7863 8.91547 38.0315 9.26679 38.1542 9.71092H38.2337C38.3895 9.27342 38.6712 8.92376 39.0789 8.66192C39.4899 8.39677 39.9754 8.26419 40.5356 8.26419C41.2482 8.26419 41.8265 8.49123 42.2706 8.9453C42.7181 9.39606 42.9418 10.0357 42.9418 10.8643V16H40.8289V11.2819C40.8289 10.8577 40.7162 10.5395 40.4908 10.3274C40.2654 10.1153 39.9837 10.0092 39.6456 10.0092C39.2612 10.0092 38.9612 10.1319 38.7458 10.3771C38.5303 10.6191 38.4226 10.9389 38.4226 11.3366V16H36.3694V11.2372C36.3694 10.8627 36.2616 10.5644 36.0462 10.3423C35.8341 10.1203 35.554 10.0092 35.206 10.0092C34.9707 10.0092 34.7586 10.0689 34.5696 10.1882C34.384 10.3042 34.2366 10.4683 34.1272 10.6804C34.0178 10.8892 33.9631 11.1345 33.9631 11.4162V16H31.8452Z" fill="#38424B"/>
<path d="M47.645 16.1491C46.8728 16.1491 46.2049 15.9851 45.6415 15.6569C45.0813 15.3255 44.6488 14.8648 44.3439 14.2748C44.039 13.6816 43.8865 12.9938 43.8865 12.2116C43.8865 11.4228 44.039 10.7334 44.3439 10.1435C44.6488 9.55018 45.0813 9.08947 45.6415 8.76135C46.2049 8.42991 46.8728 8.26419 47.645 8.26419C48.4173 8.26419 49.0835 8.42991 49.6436 8.76135C50.2071 9.08947 50.6412 9.55018 50.9462 10.1435C51.2511 10.7334 51.4036 11.4228 51.4036 12.2116C51.4036 12.9938 51.2511 13.6816 50.9462 14.2748C50.6412 14.8648 50.2071 15.3255 49.6436 15.6569C49.0835 15.9851 48.4173 16.1491 47.645 16.1491ZM47.655 14.5085C48.0063 14.5085 48.2996 14.4091 48.5349 14.2102C48.7703 14.008 48.9476 13.7329 49.0669 13.3849C49.1895 13.0369 49.2509 12.6408 49.2509 12.1967C49.2509 11.7526 49.1895 11.3565 49.0669 11.0085C48.9476 10.6605 48.7703 10.3854 48.5349 10.1832C48.2996 9.98105 48.0063 9.87996 47.655 9.87996C47.3003 9.87996 47.002 9.98105 46.7601 10.1832C46.5215 10.3854 46.3408 10.6605 46.2182 11.0085C46.0989 11.3565 46.0392 11.7526 46.0392 12.1967C46.0392 12.6408 46.0989 13.0369 46.2182 13.3849C46.3408 13.7329 46.5215 14.008 46.7601 14.2102C47.002 14.4091 47.3003 14.5085 47.655 14.5085Z" fill="#38424B"/>
<path d="M57.4068 18.8636V14.777H57.3422C57.2428 14.9891 57.1019 15.1996 56.9196 15.4084C56.7407 15.6139 56.507 15.7846 56.2186 15.9204C55.9336 16.0563 55.5856 16.1243 55.1746 16.1243C54.5946 16.1243 54.0693 15.9751 53.5986 15.6768C53.1313 15.3752 52.7601 14.9328 52.485 14.3494C52.2132 13.7628 52.0773 13.0435 52.0773 12.1917C52.0773 11.3167 52.2182 10.5892 52.4999 10.0092C52.7816 9.42589 53.1561 8.99004 53.6235 8.70169C54.0941 8.41002 54.6095 8.26419 55.1696 8.26419C55.5972 8.26419 55.9535 8.33711 56.2385 8.48294C56.5269 8.62546 56.7589 8.80444 56.9345 9.01987C57.1135 9.23199 57.2494 9.4408 57.3422 9.64629H57.4317V8.36362H59.5198V18.8636H57.4068ZM55.8458 14.4389C56.1872 14.4389 56.4755 14.3461 56.7108 14.1605C56.9495 13.9716 57.1318 13.7081 57.2577 13.37C57.387 13.0319 57.4516 12.6359 57.4516 12.1818C57.4516 11.7277 57.3886 11.3333 57.2627 10.9986C57.1367 10.6638 56.9544 10.4053 56.7158 10.223C56.4772 10.0407 56.1872 9.94956 55.8458 9.94956C55.4978 9.94956 55.2044 10.044 54.9658 10.2329C54.7272 10.4219 54.5465 10.6837 54.4239 11.0185C54.3013 11.3532 54.2399 11.741 54.2399 12.1818C54.2399 12.6259 54.3013 13.0187 54.4239 13.3601C54.5498 13.6981 54.7305 13.9633 54.9658 14.1555C55.2044 14.3444 55.4978 14.4389 55.8458 14.4389Z" fill="#38424B"/>
<path d="M64.2503 16.1491C63.4781 16.1491 62.8102 15.9851 62.2468 15.6569C61.6867 15.3255 61.2541 14.8648 60.9492 14.2748C60.6443 13.6816 60.4918 12.9938 60.4918 12.2116C60.4918 11.4228 60.6443 10.7334 60.9492 10.1435C61.2541 9.55018 61.6867 9.08947 62.2468 8.76135C62.8102 8.42991 63.4781 8.26419 64.2503 8.26419C65.0226 8.26419 65.6888 8.42991 66.2489 8.76135C66.8124 9.08947 67.2466 9.55018 67.5515 10.1435C67.8564 10.7334 68.0089 11.4228 68.0089 12.2116C68.0089 12.9938 67.8564 13.6816 67.5515 14.2748C67.2466 14.8648 66.8124 15.3255 66.2489 15.6569C65.6888 15.9851 65.0226 16.1491 64.2503 16.1491ZM64.2603 14.5085C64.6116 14.5085 64.9049 14.4091 65.1403 14.2102C65.3756 14.008 65.5529 13.7329 65.6722 13.3849C65.7949 13.0369 65.8562 12.6408 65.8562 12.1967C65.8562 11.7526 65.7949 11.3565 65.6722 11.0085C65.5529 10.6605 65.3756 10.3854 65.1403 10.1832C64.9049 9.98105 64.6116 9.87996 64.2603 9.87996C63.9056 9.87996 63.6074 9.98105 63.3654 10.1832C63.1268 10.3854 62.9461 10.6605 62.8235 11.0085C62.7042 11.3565 62.6445 11.7526 62.6445 12.1967C62.6445 12.6408 62.7042 13.0369 62.8235 13.3849C62.9461 13.7329 63.1268 14.008 63.3654 14.2102C63.6074 14.4091 63.9056 14.5085 64.2603 14.5085Z" fill="#38424B"/>
<path d="M68.966 18.8636V8.36362H71.0541V9.64629H71.1485C71.2413 9.4408 71.3756 9.23199 71.5512 9.01987C71.7302 8.80444 71.9622 8.62546 72.2472 8.48294C72.5356 8.33711 72.8936 8.26419 73.3211 8.26419C73.8779 8.26419 74.3917 8.41002 74.8623 8.70169C75.3329 8.99004 75.7091 9.42589 75.9909 10.0092C76.2726 10.5892 76.4134 11.3167 76.4134 12.1917C76.4134 13.0435 76.2759 13.7628 76.0008 14.3494C75.729 14.9328 75.3578 15.3752 74.8872 15.6768C74.4198 15.9751 73.8962 16.1243 73.3161 16.1243C72.9052 16.1243 72.5555 16.0563 72.2671 15.9204C71.9821 15.7846 71.7484 15.6139 71.5661 15.4084C71.3838 15.1996 71.2446 14.9891 71.1485 14.777H71.0839V18.8636H68.966ZM71.0392 12.1818C71.0392 12.6359 71.1021 13.0319 71.2281 13.37C71.354 13.7081 71.5363 13.9716 71.7749 14.1605C72.0136 14.3461 72.3036 14.4389 72.645 14.4389C72.9897 14.4389 73.2813 14.3444 73.52 14.1555C73.7586 13.9633 73.9392 13.6981 74.0619 13.3601C74.1878 13.0187 74.2508 12.6259 74.2508 12.1818C74.2508 11.741 74.1895 11.3532 74.0668 11.0185C73.9442 10.6837 73.7636 10.4219 73.5249 10.2329C73.2863 10.044 72.993 9.94956 72.645 9.94956C72.3003 9.94956 72.0086 10.0407 71.77 10.223C71.5347 10.4053 71.354 10.6638 71.2281 10.9986C71.1021 11.3333 71.0392 11.7277 71.0392 12.1818Z" fill="#38424B"/>
</svg>
