<svg width="77" height="28" viewBox="0 0 77 28" fill="none" xmlns="http://www.w3.org/2000/svg">
<path fill-rule="evenodd" clip-rule="evenodd" d="M7.23757 25.6553C8.37223 25.7483 9.83592 25.75 11.9675 25.75C14.099 25.75 15.5627 25.7483 16.6974 25.6553C17.8059 25.5644 18.4013 25.3979 18.8323 25.1777C19.8175 24.6744 20.6184 23.8713 21.1204 22.8834C21.34 22.4514 21.506 21.8543 21.5966 20.7428C21.6893 19.605 21.6911 18.1374 21.6911 16C21.6911 13.8626 21.6893 12.395 21.5966 11.2572C21.506 10.1457 21.34 9.54867 21.1204 9.11655C20.6184 8.1287 19.8175 7.32555 18.8323 6.82221C18.4013 6.60204 17.8059 6.43552 16.6974 6.34471C15.5627 6.25175 14.099 6.25 11.9675 6.25C9.83592 6.25 8.37223 6.25175 7.23757 6.34471C6.12909 6.43552 5.53363 6.60204 5.10269 6.82221C4.11751 7.32555 3.31654 8.1287 2.81456 9.11655C2.59499 9.54867 2.42892 10.1457 2.33836 11.2572C2.24565 12.395 2.2439 13.8626 2.2439 16C2.2439 18.1374 2.24565 19.605 2.33836 20.7428C2.42892 21.8543 2.59499 22.4514 2.81456 22.8834C3.31654 23.8713 4.11751 24.6744 5.10269 25.1777C5.53363 25.3979 6.12909 25.5644 7.23757 25.6553ZM0.815232 8.09507C0 9.69941 0 11.7996 0 16C0 20.2004 0 22.3006 0.815232 23.9049C1.53234 25.3161 2.67658 26.4635 4.08397 27.1826C5.68396 28 7.77849 28 11.9675 28C16.1565 28 18.251 28 19.851 27.1826C21.2584 26.4635 22.4026 25.3161 23.1198 23.9049C23.935 22.3006 23.935 20.2004 23.935 16C23.935 11.7996 23.935 9.69941 23.1198 8.09507C22.4026 6.68385 21.2584 5.5365 19.851 4.81745C18.251 4 16.1565 4 11.9675 4C7.77849 4 5.68396 4 4.08397 4.81745C2.67658 5.5365 1.53234 6.68385 0.815232 8.09507Z" fill="white"/>
<path fill-rule="evenodd" clip-rule="evenodd" d="M8.67413 12.3216C9.09561 12.0947 9.59383 11.9875 10.1582 11.9875C10.8452 11.9875 11.4204 12.0852 11.8667 12.2993C12.2032 12.4588 12.4878 12.6748 12.7176 12.9466C12.9776 12.668 13.2744 12.4483 13.6082 12.2905C14.0444 12.0843 14.5665 11.9875 15.1646 11.9875C15.6389 11.9875 16.0672 12.0461 16.4457 12.1685C16.8225 12.2885 17.1417 12.4547 17.3932 12.6741C17.6374 12.8816 17.8367 13.1324 17.9913 13.4238C18.1424 13.7086 18.2494 14.0018 18.3107 14.3032C18.3707 14.5979 18.4 14.9132 18.4 15.2485V19.561C18.4 19.8867 18.2774 20.1692 18.0403 20.3925C17.81 20.609 17.5264 20.7164 17.2058 20.7164C16.8735 20.7164 16.581 20.6122 16.3518 20.3898L16.3487 20.3868C16.1273 20.1647 16.0201 19.8824 16.0201 19.561V15.5939C16.0201 15.0756 15.9015 14.7359 15.7106 14.5265C15.5237 14.3214 15.2271 14.1971 14.7698 14.1971C14.2147 14.1971 13.8606 14.3336 13.649 14.5535C13.4325 14.7845 13.3096 15.1145 13.3096 15.577V19.561C13.3096 19.8867 13.187 20.1692 12.9499 20.3925C12.7196 20.609 12.436 20.7164 12.1155 20.7164C11.7831 20.7164 11.4905 20.6122 11.2613 20.3898L11.2583 20.3868C11.0368 20.1647 10.9296 19.8824 10.9296 19.561V15.5939C10.9296 15.076 10.8105 14.7365 10.6185 14.527C10.4304 14.3216 10.1315 14.1971 9.67102 14.1971C9.14243 14.1971 8.79358 14.3336 8.57405 14.5613C8.35288 14.7907 8.21921 15.1577 8.21921 15.7118V19.561C8.21921 19.8879 8.10246 20.1719 7.86767 20.3927C7.63625 20.6102 7.3495 20.7164 7.025 20.7164C6.7005 20.7164 6.41375 20.6102 6.18235 20.3927C5.94754 20.1719 5.83081 19.8879 5.83081 19.561V13.2776C5.83081 12.9509 5.94709 12.6648 6.17629 12.435L6.17913 12.4321C6.41282 12.2049 6.69942 12.0886 7.025 12.0886C7.35007 12.0886 7.6349 12.2047 7.86385 12.4335C7.95608 12.5234 8.03065 12.6223 8.08727 12.729C8.25556 12.5753 8.45198 12.4398 8.67413 12.3216Z" fill="white"/>
<path d="M31.8452 20V12.3636H33.8637V13.7109H33.9532C34.1123 13.2635 34.3774 12.9105 34.7486 12.652C35.1198 12.3935 35.564 12.2642 36.081 12.2642C36.6047 12.2642 37.0505 12.3951 37.4184 12.6569C37.7863 12.9155 38.0315 13.2668 38.1542 13.7109H38.2337C38.3895 13.2734 38.6712 12.9238 39.0789 12.6619C39.4899 12.3968 39.9754 12.2642 40.5356 12.2642C41.2482 12.2642 41.8265 12.4912 42.2706 12.9453C42.7181 13.3961 42.9418 14.0357 42.9418 14.8643V20H40.8289V15.2819C40.8289 14.8577 40.7162 14.5395 40.4908 14.3274C40.2654 14.1153 39.9837 14.0092 39.6456 14.0092C39.2612 14.0092 38.9612 14.1319 38.7458 14.3771C38.5303 14.6191 38.4226 14.9389 38.4226 15.3366V20H36.3694V15.2372C36.3694 14.8627 36.2616 14.5644 36.0462 14.3423C35.8341 14.1203 35.554 14.0092 35.206 14.0092C34.9707 14.0092 34.7586 14.0689 34.5696 14.1882C34.384 14.3042 34.2366 14.4683 34.1272 14.6804C34.0178 14.8892 33.9631 15.1345 33.9631 15.4162V20H31.8452Z" fill="white"/>
<path d="M47.645 20.1491C46.8728 20.1491 46.2049 19.9851 45.6415 19.6569C45.0813 19.3255 44.6488 18.8648 44.3439 18.2748C44.039 17.6816 43.8865 16.9938 43.8865 16.2116C43.8865 15.4228 44.039 14.7334 44.3439 14.1435C44.6488 13.5502 45.0813 13.0895 45.6415 12.7613C46.2049 12.4299 46.8728 12.2642 47.645 12.2642C48.4173 12.2642 49.0835 12.4299 49.6436 12.7613C50.2071 13.0895 50.6412 13.5502 50.9462 14.1435C51.2511 14.7334 51.4036 15.4228 51.4036 16.2116C51.4036 16.9938 51.2511 17.6816 50.9462 18.2748C50.6412 18.8648 50.2071 19.3255 49.6436 19.6569C49.0835 19.9851 48.4173 20.1491 47.645 20.1491ZM47.655 18.5085C48.0063 18.5085 48.2996 18.4091 48.5349 18.2102C48.7703 18.008 48.9476 17.7329 49.0669 17.3849C49.1895 17.0369 49.2509 16.6408 49.2509 16.1967C49.2509 15.7526 49.1895 15.3565 49.0669 15.0085C48.9476 14.6605 48.7703 14.3854 48.5349 14.1832C48.2996 13.981 48.0063 13.88 47.655 13.88C47.3003 13.88 47.002 13.981 46.7601 14.1832C46.5215 14.3854 46.3408 14.6605 46.2182 15.0085C46.0989 15.3565 46.0392 15.7526 46.0392 16.1967C46.0392 16.6408 46.0989 17.0369 46.2182 17.3849C46.3408 17.7329 46.5215 18.008 46.7601 18.2102C47.002 18.4091 47.3003 18.5085 47.655 18.5085Z" fill="white"/>
<path d="M57.4068 22.8636V18.777H57.3422C57.2428 18.9891 57.1019 19.1996 56.9196 19.4084C56.7407 19.6139 56.507 19.7846 56.2186 19.9204C55.9336 20.0563 55.5856 20.1243 55.1746 20.1243C54.5946 20.1243 54.0693 19.9751 53.5986 19.6768C53.1313 19.3752 52.7601 18.9328 52.485 18.3494C52.2132 17.7628 52.0773 17.0435 52.0773 16.1917C52.0773 15.3167 52.2182 14.5892 52.4999 14.0092C52.7816 13.4259 53.1561 12.99 53.6235 12.7017C54.0941 12.41 54.6095 12.2642 55.1696 12.2642C55.5972 12.2642 55.9535 12.3371 56.2385 12.4829C56.5269 12.6255 56.7589 12.8044 56.9345 13.0199C57.1135 13.232 57.2494 13.4408 57.3422 13.6463H57.4317V12.3636H59.5198V22.8636H57.4068ZM55.8458 18.4389C56.1872 18.4389 56.4755 18.3461 56.7108 18.1605C56.9495 17.9716 57.1318 17.7081 57.2577 17.37C57.387 17.0319 57.4516 16.6359 57.4516 16.1818C57.4516 15.7277 57.3886 15.3333 57.2627 14.9986C57.1367 14.6638 56.9544 14.4053 56.7158 14.223C56.4772 14.0407 56.1872 13.9496 55.8458 13.9496C55.4978 13.9496 55.2044 14.044 54.9658 14.2329C54.7272 14.4219 54.5465 14.6837 54.4239 15.0185C54.3013 15.3532 54.2399 15.741 54.2399 16.1818C54.2399 16.6259 54.3013 17.0187 54.4239 17.3601C54.5498 17.6981 54.7305 17.9633 54.9658 18.1555C55.2044 18.3444 55.4978 18.4389 55.8458 18.4389Z" fill="white"/>
<path d="M64.2503 20.1491C63.4781 20.1491 62.8102 19.9851 62.2468 19.6569C61.6867 19.3255 61.2541 18.8648 60.9492 18.2748C60.6443 17.6816 60.4918 16.9938 60.4918 16.2116C60.4918 15.4228 60.6443 14.7334 60.9492 14.1435C61.2541 13.5502 61.6867 13.0895 62.2468 12.7613C62.8102 12.4299 63.4781 12.2642 64.2503 12.2642C65.0226 12.2642 65.6888 12.4299 66.2489 12.7613C66.8124 13.0895 67.2466 13.5502 67.5515 14.1435C67.8564 14.7334 68.0089 15.4228 68.0089 16.2116C68.0089 16.9938 67.8564 17.6816 67.5515 18.2748C67.2466 18.8648 66.8124 19.3255 66.2489 19.6569C65.6888 19.9851 65.0226 20.1491 64.2503 20.1491ZM64.2603 18.5085C64.6116 18.5085 64.9049 18.4091 65.1403 18.2102C65.3756 18.008 65.5529 17.7329 65.6722 17.3849C65.7949 17.0369 65.8562 16.6408 65.8562 16.1967C65.8562 15.7526 65.7949 15.3565 65.6722 15.0085C65.5529 14.6605 65.3756 14.3854 65.1403 14.1832C64.9049 13.981 64.6116 13.88 64.2603 13.88C63.9056 13.88 63.6074 13.981 63.3654 14.1832C63.1268 14.3854 62.9461 14.6605 62.8235 15.0085C62.7042 15.3565 62.6445 15.7526 62.6445 16.1967C62.6445 16.6408 62.7042 17.0369 62.8235 17.3849C62.9461 17.7329 63.1268 18.008 63.3654 18.2102C63.6074 18.4091 63.9056 18.5085 64.2603 18.5085Z" fill="white"/>
<path d="M68.966 22.8636V12.3636H71.0541V13.6463H71.1485C71.2413 13.4408 71.3756 13.232 71.5512 13.0199C71.7302 12.8044 71.9622 12.6255 72.2472 12.4829C72.5356 12.3371 72.8936 12.2642 73.3211 12.2642C73.8779 12.2642 74.3917 12.41 74.8623 12.7017C75.3329 12.99 75.7091 13.4259 75.9909 14.0092C76.2726 14.5892 76.4134 15.3167 76.4134 16.1917C76.4134 17.0435 76.2759 17.7628 76.0008 18.3494C75.729 18.9328 75.3578 19.3752 74.8872 19.6768C74.4198 19.9751 73.8962 20.1243 73.3161 20.1243C72.9052 20.1243 72.5555 20.0563 72.2671 19.9204C71.9821 19.7846 71.7484 19.6139 71.5661 19.4084C71.3838 19.1996 71.2446 18.9891 71.1485 18.777H71.0839V22.8636H68.966ZM71.0392 16.1818C71.0392 16.6359 71.1021 17.0319 71.2281 17.37C71.354 17.7081 71.5363 17.9716 71.7749 18.1605C72.0136 18.3461 72.3036 18.4389 72.645 18.4389C72.9897 18.4389 73.2813 18.3444 73.52 18.1555C73.7586 17.9633 73.9392 17.6981 74.0619 17.3601C74.1878 17.0187 74.2508 16.6259 74.2508 16.1818C74.2508 15.741 74.1895 15.3532 74.0668 15.0185C73.9442 14.6837 73.7636 14.4219 73.5249 14.2329C73.2863 14.044 72.993 13.9496 72.645 13.9496C72.3003 13.9496 72.0086 14.0407 71.77 14.223C71.5347 14.4053 71.354 14.6638 71.2281 14.9986C71.1021 15.3333 71.0392 15.7277 71.0392 16.1818Z" fill="white"/>
<path d="M53.7891 8V0H55.2031V2.99219H55.2617C55.3346 2.84635 55.4375 2.69141 55.5703 2.52734C55.7031 2.36068 55.8828 2.21875 56.1094 2.10156C56.3359 1.98177 56.625 1.92188 56.9766 1.92188C57.4401 1.92188 57.8581 2.04037 58.2305 2.27734C58.6055 2.51172 58.9023 2.85938 59.1211 3.32031C59.3424 3.77865 59.4531 4.34115 59.4531 5.00781C59.4531 5.66667 59.3451 6.22656 59.1289 6.6875C58.9128 7.14844 58.6185 7.5 58.2461 7.74219C57.8737 7.98438 57.4518 8.10547 56.9805 8.10547C56.6367 8.10547 56.3516 8.04818 56.125 7.93359C55.8984 7.81901 55.7161 7.68099 55.5781 7.51953C55.4427 7.35547 55.3372 7.20052 55.2617 7.05469H55.1797V8H53.7891ZM55.1758 5C55.1758 5.38802 55.2305 5.72786 55.3398 6.01953C55.4518 6.3112 55.612 6.53906 55.8203 6.70312C56.0313 6.86458 56.2865 6.94531 56.5859 6.94531C56.8984 6.94531 57.1602 6.86198 57.3711 6.69531C57.582 6.52604 57.7409 6.29557 57.8477 6.00391C57.957 5.70964 58.0117 5.375 58.0117 5C58.0117 4.6276 57.9583 4.29688 57.8516 4.00781C57.7448 3.71875 57.5859 3.49219 57.375 3.32812C57.1641 3.16406 56.901 3.08203 56.5859 3.08203C56.2839 3.08203 56.0273 3.16146 55.8164 3.32031C55.6055 3.47917 55.4453 3.70182 55.3359 3.98828C55.2292 4.27474 55.1758 4.61198 55.1758 5Z" fill="#DA5E41"/>
<path d="M63.3115 8.11719C62.71 8.11719 62.1904 7.99219 61.7529 7.74219C61.318 7.48958 60.9834 7.13281 60.749 6.67188C60.5146 6.20833 60.3975 5.66276 60.3975 5.03516C60.3975 4.41797 60.5146 3.8763 60.749 3.41016C60.986 2.94141 61.3167 2.57682 61.7412 2.31641C62.1657 2.05339 62.6644 1.92188 63.2373 1.92188C63.6071 1.92188 63.9561 1.98177 64.2842 2.10156C64.6149 2.21875 64.9066 2.40104 65.1592 2.64844C65.4144 2.89583 65.6149 3.21094 65.7607 3.59375C65.9066 3.97396 65.9795 4.42708 65.9795 4.95312V5.38672H61.0615V4.43359H64.624C64.6214 4.16276 64.5628 3.92188 64.4482 3.71094C64.3337 3.4974 64.1735 3.32943 63.9678 3.20703C63.7646 3.08464 63.5277 3.02344 63.2568 3.02344C62.9678 3.02344 62.7139 3.09375 62.4951 3.23438C62.2764 3.3724 62.1058 3.55469 61.9834 3.78125C61.8636 4.00521 61.8024 4.2513 61.7998 4.51953V5.35156C61.7998 5.70052 61.8636 6 61.9912 6.25C62.1188 6.4974 62.2972 6.6875 62.5264 6.82031C62.7555 6.95052 63.0238 7.01562 63.3311 7.01562C63.5368 7.01562 63.723 6.98698 63.8896 6.92969C64.0563 6.86979 64.2008 6.78255 64.3232 6.66797C64.4456 6.55339 64.5381 6.41146 64.6006 6.24219L65.9209 6.39062C65.8376 6.73958 65.6787 7.04427 65.4443 7.30469C65.2126 7.5625 64.9157 7.76302 64.5537 7.90625C64.1917 8.04688 63.7777 8.11719 63.3115 8.11719Z" fill="#DA5E41"/>
<path d="M70.1719 2V3.09375H66.7227V2H70.1719ZM67.5742 0.5625H68.9883V6.19531C68.9883 6.38542 69.0169 6.53125 69.0742 6.63281C69.1341 6.73177 69.2122 6.79948 69.3086 6.83594C69.4049 6.8724 69.5117 6.89062 69.6289 6.89062C69.7174 6.89062 69.7982 6.88411 69.8711 6.87109C69.9466 6.85807 70.0039 6.84635 70.043 6.83594L70.2812 7.94141C70.2057 7.96745 70.0977 7.99609 69.957 8.02734C69.819 8.05859 69.6497 8.07682 69.4492 8.08203C69.0951 8.09245 68.776 8.03906 68.4922 7.92188C68.2083 7.80208 67.9831 7.61719 67.8164 7.36719C67.6523 7.11719 67.5716 6.80469 67.5742 6.42969V0.5625Z" fill="#DA5E41"/>
<path d="M73.0811 8.12109C72.7008 8.12109 72.3584 8.05339 72.0537 7.91797C71.7516 7.77995 71.512 7.57682 71.335 7.30859C71.1605 7.04036 71.0732 6.70964 71.0732 6.31641C71.0732 5.97786 71.1357 5.69792 71.2607 5.47656C71.3857 5.25521 71.5563 5.07813 71.7725 4.94531C71.9886 4.8125 72.2321 4.71224 72.5029 4.64453C72.7764 4.57422 73.0589 4.52344 73.3506 4.49219C73.7021 4.45573 73.9873 4.42318 74.2061 4.39453C74.4248 4.36328 74.5837 4.31641 74.6826 4.25391C74.7842 4.1888 74.835 4.08854 74.835 3.95313V3.92969C74.835 3.63542 74.7477 3.40755 74.5732 3.24609C74.3988 3.08464 74.1475 3.00391 73.8193 3.00391C73.473 3.00391 73.1982 3.07943 72.9951 3.23047C72.7946 3.38151 72.6592 3.5599 72.5889 3.76563L71.2686 3.57813C71.3727 3.21354 71.5446 2.90885 71.7842 2.66406C72.0238 2.41667 72.3167 2.23177 72.6631 2.10938C73.0094 1.98438 73.3923 1.92188 73.8115 1.92188C74.1006 1.92188 74.3883 1.95573 74.6748 2.02344C74.9613 2.09115 75.223 2.20312 75.46 2.35937C75.6969 2.51302 75.887 2.72266 76.0303 2.98828C76.1761 3.25391 76.249 3.58594 76.249 3.98437V8H74.8896V7.17578H74.8428C74.7568 7.34245 74.6357 7.4987 74.4795 7.64453C74.3258 7.78776 74.1318 7.90365 73.8975 7.99219C73.6657 8.07813 73.3936 8.12109 73.0811 8.12109ZM73.4482 7.08203C73.7321 7.08203 73.9782 7.02604 74.1865 6.91406C74.3949 6.79948 74.555 6.64844 74.667 6.46094C74.7816 6.27344 74.8389 6.06901 74.8389 5.84766V5.14062C74.7946 5.17708 74.7191 5.21094 74.6123 5.24219C74.5081 5.27344 74.391 5.30078 74.2607 5.32422C74.1305 5.34766 74.0016 5.36849 73.874 5.38672C73.7464 5.40495 73.6357 5.42057 73.542 5.43359C73.3311 5.46224 73.1423 5.50911 72.9756 5.57422C72.8089 5.63932 72.6774 5.73047 72.5811 5.84766C72.4847 5.96224 72.4365 6.11068 72.4365 6.29297C72.4365 6.55339 72.5316 6.75 72.7217 6.88281C72.9118 7.01562 73.154 7.08203 73.4482 7.08203Z" fill="#DA5E41"/>
</svg>
