<svg width="70" height="16" viewBox="0 0 70 16" fill="none" xmlns="http://www.w3.org/2000/svg">
<path d="M12.0645 8.50135C12.3243 8.96385 12.4704 9.54198 12.4704 10.2192V10.2522C12.4704 10.946 12.3405 11.5737 12.0645 12.1353C11.7884 12.6969 11.3987 13.1594 10.9116 13.5558C10.4083 13.9357 9.80747 14.2331 9.09302 14.4478C8.37857 14.6625 7.58293 14.7616 6.7061 14.7616C5.37462 14.7616 4.12433 14.5799 2.97147 14.2C1.8186 13.8201 0.828114 13.2585 0 12.5152L2.3382 9.69064C3.05266 10.2522 3.79958 10.6487 4.57898 10.8799C5.35839 11.1277 6.13779 11.2433 6.91719 11.2433C7.32313 11.2433 7.59916 11.1938 7.77778 11.0947C7.95639 10.9956 8.03758 10.8469 8.03758 10.6817V10.6487C8.03758 10.4505 7.90768 10.3018 7.64788 10.1697C7.38808 10.0375 6.91719 9.90537 6.21898 9.77323C5.48829 9.62457 4.79007 9.44287 4.12433 9.24465C3.45859 9.04644 2.87404 8.78215 2.37068 8.46831C1.86732 8.15447 1.46138 7.75804 1.1691 7.27902C0.844352 6.76696 0.698214 6.17232 0.698214 5.47857V5.44553C0.698214 4.81785 0.811877 4.2232 1.05544 3.67811C1.299 3.13302 1.65623 2.654 2.12712 2.25757C2.59801 1.84462 3.18256 1.53078 3.86453 1.29953C4.54651 1.06828 5.34215 0.952654 6.25145 0.952654C7.51798 0.952654 8.63837 1.10132 9.58014 1.41516C10.5382 1.71248 11.3825 2.17498 12.1457 2.78614L10.0186 5.77589C9.40153 5.31339 8.73579 4.98303 8.05382 4.7683C7.3556 4.55356 6.7061 4.45446 6.10531 4.45446C5.78056 4.45446 5.537 4.50401 5.39086 4.60312C5.22849 4.70222 5.16354 4.83437 5.16354 4.99955V5.03258C5.16354 5.21428 5.2772 5.36294 5.52076 5.49508C5.76432 5.62723 6.21898 5.75937 6.90095 5.89152C7.72907 6.04018 8.49223 6.22187 9.17421 6.43661C9.85618 6.65134 10.4407 6.93214 10.9441 7.2625C11.415 7.6259 11.8047 8.02233 12.0645 8.50135ZM12.2269 4.96651H16.0752V14.5139H20.4431V4.96651H24.2914V1.20042H12.2269V4.96651ZM62.9529 0.374527L55.9221 14.5139H60.1113L62.9529 8.79867L65.8107 14.5139H70L62.9529 0.374527ZM43.3704 0.374527L50.4175 14.5139H46.2283L43.3867 8.79867L40.5451 14.5139H37.7036H36.3558H32.7186L30.2505 10.7148H30.2181H29.325V14.5139H24.9571V1.20042H31.306C32.4751 1.20042 33.4331 1.33257 34.1962 1.61337C34.9432 1.87766 35.5602 2.25757 36.0149 2.72007C36.4208 3.1165 36.7131 3.57901 36.9079 4.09106C37.1028 4.60312 37.2002 5.19776 37.2002 5.875V5.90803C37.2002 6.88259 36.9729 7.70849 36.502 8.3692C36.0473 9.04644 35.4141 9.57501 34.6184 9.97144L36.8917 13.3411L43.3704 0.374527ZM32.8485 6.20536C32.8485 5.77589 32.7024 5.46205 32.3939 5.24732C32.1016 5.03258 31.6957 4.93348 31.1761 4.93348H29.2763V7.54331H31.1598C31.6794 7.54331 32.1016 7.42768 32.3939 7.19643C32.6862 6.96518 32.8485 6.65134 32.8485 6.23839V6.20536ZM56.0195 1.20042L53.1617 6.93214L50.3039 1.20042H46.1146L53.1617 15.3398L60.1925 1.20042H56.0195Z" fill="white"/>
</svg>
