<svg width="220" height="336" viewBox="0 0 220 336" fill="none" xmlns="http://www.w3.org/2000/svg">
<rect opacity="0.3" x="44" y="32" width="64" height="4" rx="2" fill="#CCCCCC"/>
<rect opacity="0.3" x="16" y="24" width="20" height="20" rx="10" fill="#CCCCCC"/>
<rect x="16" y="52" width="188" height="188" rx="4" fill="url(#paint0_linear_2422_111)"/>
<path d="M149.949 197.654L149.217 196.545C148.192 194.995 147.637 193.182 147.617 191.325L147.613 190.931C147.607 190.41 147.559 189.891 147.47 189.378L147.141 187.488C147.053 186.984 147.023 186.472 147.053 185.961L147.108 185.025C147.156 184.201 146.936 183.383 146.481 182.694L145.975 181.929C145.631 181.408 145.552 180.755 145.761 180.167V180.167C145.971 179.578 145.892 178.926 145.547 178.404L145.217 177.905C144.86 177.365 144.677 176.729 144.69 176.083L144.695 175.831C144.719 174.632 144.203 173.485 143.29 172.707L142.233 171.807C140.717 170.517 139.829 168.636 139.798 166.646L139.772 165.009C139.76 164.26 139.661 163.515 139.477 162.79L139.111 161.341C138.852 160.321 138.424 159.351 137.843 158.473V158.473L135.895 155.523C135.202 154.474 133.634 154.569 133.072 155.692V155.692C132.317 157.201 130.05 156.714 129.98 155.029L129.913 153.406C129.867 152.282 128.924 151.405 127.799 151.44L127.14 151.46C125.409 151.514 124.07 149.956 124.382 148.253L124.712 146.455C124.956 145.124 124.353 143.78 123.196 143.078V143.078C122.179 142.46 121.578 141.337 121.63 140.148L121.64 139.921C121.721 138.073 120.404 136.457 118.577 136.163L117.508 135.991C116.165 135.775 114.974 135.006 114.224 133.871L113.523 132.809C112.954 131.948 112.56 130.969 112.369 129.956V129.956C112.068 128.358 111.279 126.869 110.117 125.732L108.156 123.813C107.083 122.763 106.269 121.477 105.78 120.057L104.98 117.736C104.632 116.727 104.042 115.819 103.261 115.093L101.921 113.845C100.507 112.528 98.3746 112.35 96.7623 113.416V113.416C95.6792 114.131 94.9895 115.309 94.8953 116.604L94.7235 118.964C94.6708 119.688 94.494 120.396 94.2008 121.059L93.2627 123.181C92.6714 124.518 91.2616 125.298 89.8146 125.088L89.255 125.006C88.2225 124.856 87.2078 125.374 86.7233 126.298L86.355 127.001C85.8636 127.938 84.6616 128.233 83.7925 127.628L83.7317 127.586C82.8139 126.948 81.5408 127.353 81.1596 128.403V128.403C80.6268 129.872 78.5622 129.907 77.9796 128.458L76.7996 125.521C76.7265 125.339 76.6352 125.165 76.5272 125.002L74.7026 122.24C74.1722 121.437 74.1297 120.407 74.5921 119.563L75.1013 118.634C75.5303 117.851 75.223 116.868 74.4244 116.469V116.469C73.3404 115.927 73.2492 114.415 74.2603 113.747L75.1768 113.142C76.0228 112.583 76.3795 111.52 76.0418 110.563L75.7414 109.713C75.4434 108.869 74.6783 108.279 73.7866 108.204L73.5664 108.186C72.5249 108.098 71.7197 107.235 71.7052 106.19V106.19C71.6932 105.316 71.123 104.547 70.2899 104.283L66.5719 103.1V103.1C63.6555 102.205 62.3049 98.8502 63.7874 96.1838L63.8402 96.0888L64.6727 94.8861C65.7169 93.3775 67.1691 92.1975 68.8595 91.484L74.2603 89.2046" stroke="white" stroke-width="2.5" stroke-linecap="round" stroke-linejoin="round"/>
<circle cx="76.9761" cy="88.6882" r="2.1736" transform="rotate(56.5482 76.9761 88.6882)" stroke="white" stroke-width="2.5" stroke-linecap="round" stroke-linejoin="round"/>
<circle cx="149.931" cy="199.113" r="2.1736" transform="rotate(56.5482 149.931 199.113)" stroke="white" stroke-width="2.5" stroke-linecap="round" stroke-linejoin="round"/>
<path opacity="0.3" d="M16 324C16 321.791 17.7909 320 20 320H200C202.209 320 204 321.791 204 324V336H16V324Z" fill="#CCCCCC"/>
<path opacity="0.3" d="M16 12C16 14.2091 17.7909 16 20 16H200C202.209 16 204 14.2091 204 12V0H16V12Z" fill="#CCCCCC"/>
<rect opacity="0.3" x="16" y="276" width="88" height="4" rx="2" fill="#CCCCCC"/>
<rect opacity="0.3" x="16" y="248" width="16" height="16" rx="4" fill="#CCCCCC"/>
<rect opacity="0.3" x="40" y="248" width="16" height="16" rx="4" fill="#CCCCCC"/>
<rect opacity="0.3" x="188" y="248" width="16" height="16" rx="4" fill="#CCCCCC"/>
<rect opacity="0.3" x="16" y="288" width="152" height="4" rx="2" fill="#CCCCCC"/>
<rect opacity="0.3" x="16" y="300" width="168" height="4" rx="2" fill="#CCCCCC"/>
<rect x="1" y="1" width="218" height="334" rx="11" stroke="black" stroke-opacity="0.1" stroke-width="2"/>
<defs>
<linearGradient id="paint0_linear_2422_111" x1="16.0002" y1="240" x2="204" y2="52.0001" gradientUnits="userSpaceOnUse">
<stop stop-color="#6378EC"/>
<stop offset="1" stop-color="#A4698D"/>
</linearGradient>
</defs>
</svg>
