<svg width="220" height="336" viewBox="0 0 220 336" fill="none" xmlns="http://www.w3.org/2000/svg">
<rect x="24" y="16" width="172" height="304" rx="4" fill="url(#paint0_linear_2422_112)"/>
<rect opacity="0.5" x="60" y="32" width="64" height="4" rx="2" fill="white"/>
<rect opacity="0.5" x="32" y="24" width="20" height="20" rx="10" fill="white"/>
<path d="M166.922 238.855L165.905 237.316C164.484 235.165 163.713 232.65 163.685 230.072L163.68 229.526C163.672 228.803 163.605 228.082 163.481 227.37L163.025 224.748C162.903 224.049 162.862 223.338 162.903 222.629L162.979 221.331C163.046 220.187 162.741 219.052 162.109 218.096L161.408 217.035C160.93 216.312 160.82 215.406 161.111 214.589V214.589C161.401 213.772 161.291 212.867 160.814 212.143L160.355 211.45C159.861 210.701 159.605 209.819 159.624 208.922L159.631 208.573C159.665 206.908 158.949 205.317 157.681 204.238L156.214 202.989C154.11 201.198 152.879 198.589 152.836 195.827L152.8 193.555C152.783 192.516 152.646 191.483 152.391 190.476L151.882 188.466C151.523 187.05 150.929 185.704 150.123 184.485V184.485L147.419 180.392C146.458 178.937 144.282 179.068 143.502 180.627V180.627C142.455 182.721 139.309 182.046 139.212 179.707L139.119 177.455C139.054 175.895 137.746 174.678 136.186 174.726L135.271 174.754C132.869 174.829 131.011 172.668 131.444 170.304L131.901 167.809C132.24 165.962 131.403 164.098 129.798 163.123V163.123C128.386 162.266 127.553 160.707 127.625 159.057L127.639 158.742C127.751 156.177 125.924 153.935 123.389 153.527L121.906 153.289C120.042 152.989 118.389 151.922 117.349 150.347L116.375 148.874C115.586 147.679 115.039 146.321 114.774 144.914V144.914C114.356 142.697 113.261 140.631 111.649 139.053L108.928 136.39C107.439 134.933 106.31 133.149 105.631 131.179L104.52 127.957C104.038 126.558 103.219 125.298 102.136 124.289L100.276 122.558C98.3135 120.73 95.3549 120.484 93.1175 121.962V121.962C91.6146 122.955 90.6576 124.589 90.5268 126.386L90.2884 129.662C90.2154 130.666 89.97 131.649 89.5632 132.569L88.2614 135.513C87.4409 137.369 85.4846 138.451 83.4767 138.159L82.7002 138.046C81.2675 137.838 79.8593 138.557 79.1871 139.839L78.676 140.814C77.994 142.114 76.3262 142.523 75.1202 141.685L75.0358 141.626C73.7622 140.741 71.9956 141.302 71.4667 142.76V142.76C70.7272 144.798 67.8624 144.847 67.0539 142.835L65.4165 138.76C65.3151 138.508 65.1884 138.266 65.0385 138.039L62.5067 134.207C61.7707 133.093 61.7116 131.663 62.3532 130.493L63.0598 129.203C63.6552 128.117 63.2288 126.753 62.1206 126.199V126.199C60.6163 125.448 60.4898 123.349 61.8929 122.422L63.1647 121.582C64.3386 120.807 64.8336 119.331 64.365 118.005L63.9481 116.824C63.5346 115.654 62.4729 114.834 61.2356 114.73L60.93 114.705C59.4848 114.584 58.3674 113.386 58.3474 111.936V111.936C58.3306 110.723 57.5395 109.657 56.3835 109.289L51.2241 107.649V107.649C47.1772 106.406 45.3031 101.751 47.3603 98.0508L47.4336 97.919L48.5887 96.2501C50.0377 94.1567 52.0529 92.5192 54.3985 91.5292L61.8928 88.3661" stroke="white" stroke-width="2.5" stroke-linecap="round" stroke-linejoin="round"/>
<circle cx="65.6613" cy="87.6496" r="3.01618" transform="rotate(56.5482 65.6613 87.6496)" stroke="white" stroke-width="2.5" stroke-linecap="round" stroke-linejoin="round"/>
<circle cx="166.897" cy="240.88" r="3.01618" transform="rotate(56.5482 166.897 240.88)" stroke="white" stroke-width="2.5" stroke-linecap="round" stroke-linejoin="round"/>
<g opacity="0.3">
<path d="M206 20C206 17.7909 207.791 16 210 16H220V320H210C207.791 320 206 318.209 206 316V20Z" fill="#CCCCCC"/>
</g>
<g opacity="0.3">
<path d="M0 16H10C12.2091 16 14 17.7909 14 20V316C14 318.209 12.2091 320 10 320H0V16Z" fill="#CCCCCC"/>
</g>
<rect x="1" y="1" width="218" height="334" rx="11" stroke="black" stroke-opacity="0.1" stroke-width="2"/>
<defs>
<linearGradient id="paint0_linear_2422_112" x1="24.0001" y1="320" x2="284.583" y2="172.565" gradientUnits="userSpaceOnUse">
<stop stop-color="#6378EC"/>
<stop offset="1" stop-color="#A4698D"/>
</linearGradient>
</defs>
</svg>
