<svg width="24" height="24" viewBox="0 0 24 24" fill="none" xmlns="http://www.w3.org/2000/svg">
<path d="M0 12C0 6.34315 0 3.51472 1.75736 1.75736C3.51472 0 6.34315 0 12 0V0C17.6569 0 20.4853 0 22.2426 1.75736C24 3.51472 24 6.34315 24 12V12C24 17.6569 24 20.4853 22.2426 22.2426C20.4853 24 17.6569 24 12 24V24C6.34315 24 3.51472 24 1.75736 22.2426C0 20.4853 0 17.6569 0 12V12Z" fill="url(#paint0_radial_878_437)"/>
<path d="M0 12C0 6.34315 0 3.51472 1.75736 1.75736C3.51472 0 6.34315 0 12 0V0C17.6569 0 20.4853 0 22.2426 1.75736C24 3.51472 24 6.34315 24 12V12C24 17.6569 24 20.4853 22.2426 22.2426C20.4853 24 17.6569 24 12 24V24C6.34315 24 3.51472 24 1.75736 22.2426C0 20.4853 0 17.6569 0 12V12Z" fill="url(#paint1_radial_878_437)"/>
<path d="M12.0007 3.27274C9.63052 3.27274 9.33307 3.2831 8.40216 3.32546C7.47307 3.36801 6.83889 3.5151 6.28398 3.73092C5.70998 3.95383 5.22307 4.25201 4.73798 4.73728C4.25252 5.22237 3.95434 5.70928 3.7307 6.2831C3.51434 6.83819 3.36707 7.47255 3.32525 8.40128C3.28361 9.33219 3.27271 9.62983 3.27271 12C3.27271 14.3702 3.28325 14.6667 3.32543 15.5976C3.36816 16.5267 3.51525 17.1609 3.73089 17.7158C3.95398 18.2898 4.25216 18.7767 4.73743 19.2618C5.22234 19.7473 5.70925 20.0462 6.28289 20.2691C6.83816 20.4849 7.47252 20.632 8.40143 20.6746C9.33234 20.7169 9.62961 20.7273 11.9996 20.7273C14.37 20.7273 14.6665 20.7169 15.5974 20.6746C16.5265 20.632 17.1614 20.4849 17.7167 20.2691C18.2905 20.0462 18.7767 19.7473 19.2616 19.2618C19.7471 18.7767 20.0452 18.2898 20.2689 17.716C20.4834 17.1609 20.6307 16.5266 20.6743 15.5978C20.7162 14.6669 20.7271 14.3702 20.7271 12C20.7271 9.62983 20.7162 9.33237 20.6743 8.40146C20.6307 7.47237 20.4834 6.83819 20.2689 6.28328C20.0452 5.70928 19.7471 5.22237 19.2616 4.73728C18.7762 4.25183 18.2907 3.95364 17.7162 3.73092C17.1598 3.5151 16.5252 3.36801 15.5962 3.32546C14.6652 3.2831 14.3689 3.27274 11.998 3.27274H12.0007ZM11.2178 4.84546C11.4502 4.8451 11.7094 4.84546 12.0007 4.84546C14.3309 4.84546 14.6071 4.85383 15.5273 4.89564C16.3782 4.93455 16.84 5.07674 17.1476 5.19619C17.5549 5.35437 17.8453 5.54346 18.1505 5.84892C18.456 6.15437 18.6451 6.44528 18.8036 6.85255C18.9231 7.15983 19.0654 7.62164 19.1042 8.47255C19.146 9.39255 19.1551 9.66892 19.1551 11.998C19.1551 14.3271 19.146 14.6035 19.1042 15.5235C19.0652 16.3744 18.9231 16.8362 18.8036 17.1435C18.6454 17.5507 18.456 17.8407 18.1505 18.146C17.8451 18.4515 17.5551 18.6406 17.1476 18.7987C16.8403 18.9187 16.3782 19.0606 15.5273 19.0995C14.6073 19.1413 14.3309 19.1504 12.0007 19.1504C9.67034 19.1504 9.39416 19.1413 8.47416 19.0995C7.62325 19.0602 7.16143 18.918 6.85361 18.7986C6.44634 18.6404 6.15543 18.4513 5.84998 18.1458C5.54452 17.8404 5.35543 17.5502 5.19689 17.1427C5.07743 16.8355 4.93507 16.3736 4.89634 15.5227C4.85452 14.6027 4.84616 14.3264 4.84616 11.9958C4.84616 9.66528 4.85452 9.39037 4.89634 8.47037C4.93525 7.61946 5.07743 7.15764 5.19689 6.85001C5.35507 6.44274 5.54452 6.15183 5.84998 5.84637C6.15543 5.54092 6.44634 5.35183 6.85361 5.19328C7.16125 5.07328 7.62325 4.93146 8.47416 4.89237C9.27925 4.85601 9.59125 4.8451 11.2178 4.84328V4.84546ZM16.6592 6.29455C16.0811 6.29455 15.612 6.7631 15.612 7.34146C15.612 7.91964 16.0811 8.38874 16.6592 8.38874C17.2374 8.38874 17.7065 7.91964 17.7065 7.34146C17.7065 6.76328 17.2374 6.29419 16.6592 6.29419V6.29455ZM12.0007 7.51819C9.52561 7.51819 7.51889 9.52492 7.51889 12C7.51889 14.4751 9.52561 16.4809 12.0007 16.4809C14.4758 16.4809 16.4818 14.4751 16.4818 12C16.4818 9.52492 14.4756 7.51819 12.0005 7.51819H12.0007ZM12.0007 9.09092C13.6072 9.09092 14.9098 10.3933 14.9098 12C14.9098 13.6066 13.6072 14.9091 12.0007 14.9091C10.394 14.9091 9.09161 13.6066 9.09161 12C9.09161 10.3933 10.394 9.09092 12.0007 9.09092V9.09092Z" fill="white"/>
<defs>
<radialGradient id="paint0_radial_878_437" cx="0" cy="0" r="1" gradientUnits="userSpaceOnUse" gradientTransform="translate(6.37503 25.8485) rotate(-90) scale(23.7858 22.1226)">
<stop stop-color="#FFDD55"/>
<stop offset="0.1" stop-color="#FFDD55"/>
<stop offset="0.5" stop-color="#FF543E"/>
<stop offset="1" stop-color="#C837AB"/>
</radialGradient>
<radialGradient id="paint1_radial_878_437" cx="0" cy="0" r="1" gradientUnits="userSpaceOnUse" gradientTransform="translate(-4.02013 1.72892) rotate(78.6806) scale(10.6323 43.827)">
<stop stop-color="#3771C8"/>
<stop offset="0.128" stop-color="#3771C8"/>
<stop offset="1" stop-color="#6600FF" stop-opacity="0"/>
</radialGradient>
</defs>
</svg>
