<svg width="25" height="24" viewBox="0 0 25 24" fill="none" xmlns="http://www.w3.org/2000/svg">
<g clip-path="url(#clip0_873_304)">
<path d="M12.2558 0.181824C7.32087 0.181824 5.8776 0.186915 5.59705 0.210187C4.58433 0.294369 3.95415 0.453824 3.2676 0.795642C2.73851 1.05837 2.32124 1.36291 1.90942 1.78982C1.15942 2.56837 0.704872 3.52619 0.540327 4.66473C0.460327 5.21746 0.437054 5.33019 0.432327 8.15346C0.430508 9.09455 0.432327 10.3331 0.432327 11.9944C0.432327 16.9253 0.437781 18.3671 0.461418 18.6471C0.543236 19.6326 0.697781 20.2526 1.02505 20.9307C1.65051 22.2289 2.84505 23.2035 4.25233 23.5671C4.7396 23.6926 5.27778 23.7616 5.96869 23.7944C6.26142 23.8071 9.24505 23.8162 12.2305 23.8162C15.216 23.8162 18.2014 23.8126 18.4869 23.798C19.2869 23.7604 19.7514 23.698 20.2651 23.5653C21.6814 23.1998 22.8541 22.2398 23.4923 20.9235C23.8132 20.2616 23.976 19.618 24.0496 18.684C24.0656 18.4804 24.0723 15.2336 24.0723 11.9913C24.0723 8.74837 24.0651 5.50764 24.0491 5.30401C23.9745 4.35491 23.8118 3.71673 23.4805 3.04219C23.2087 2.49001 22.9069 2.07764 22.4687 1.65601C21.6867 0.909096 20.7303 0.454551 19.5907 0.290187C19.0385 0.210369 18.9285 0.186733 16.1031 0.181824H12.2558Z" fill="url(#paint0_radial_873_304)"/>
<path d="M12.2558 0.181824C7.32087 0.181824 5.8776 0.186915 5.59705 0.210187C4.58433 0.294369 3.95415 0.453824 3.2676 0.795642C2.73851 1.05837 2.32124 1.36291 1.90942 1.78982C1.15942 2.56837 0.704872 3.52619 0.540327 4.66473C0.460327 5.21746 0.437054 5.33019 0.432327 8.15346C0.430508 9.09455 0.432327 10.3331 0.432327 11.9944C0.432327 16.9253 0.437781 18.3671 0.461418 18.6471C0.543236 19.6326 0.697781 20.2526 1.02505 20.9307C1.65051 22.2289 2.84505 23.2035 4.25233 23.5671C4.7396 23.6926 5.27778 23.7616 5.96869 23.7944C6.26142 23.8071 9.24505 23.8162 12.2305 23.8162C15.216 23.8162 18.2014 23.8126 18.4869 23.798C19.2869 23.7604 19.7514 23.698 20.2651 23.5653C21.6814 23.1998 22.8541 22.2398 23.4923 20.9235C23.8132 20.2616 23.976 19.618 24.0496 18.684C24.0656 18.4804 24.0723 15.2336 24.0723 11.9913C24.0723 8.74837 24.0651 5.50764 24.0491 5.30401C23.9745 4.35491 23.8118 3.71673 23.4805 3.04219C23.2087 2.49001 22.9069 2.07764 22.4687 1.65601C21.6867 0.909096 20.7303 0.454551 19.5907 0.290187C19.0385 0.210369 18.9285 0.186733 16.1031 0.181824H12.2558Z" fill="url(#paint1_radial_873_304)"/>
<path d="M12.2503 3.27272C9.88016 3.27272 9.5827 3.28308 8.65179 3.32545C7.7227 3.36799 7.08852 3.51508 6.53361 3.7309C5.95961 3.95381 5.4727 4.25199 4.98761 4.73727C4.50216 5.22236 4.20398 5.70927 3.98034 6.28308C3.76398 6.83817 3.6167 7.47254 3.57488 8.40127C3.53325 9.33217 3.52234 9.62981 3.52234 12C3.52234 14.3702 3.53288 14.6667 3.57507 15.5976C3.61779 16.5267 3.76488 17.1609 3.98052 17.7158C4.20361 18.2898 4.50179 18.7767 4.98707 19.2618C5.47198 19.7473 5.95888 20.0462 6.53252 20.2691C7.08779 20.4849 7.72216 20.632 8.65107 20.6745C9.58197 20.7169 9.87925 20.7273 12.2492 20.7273C14.6196 20.7273 14.9162 20.7169 15.8471 20.6745C16.7762 20.632 17.4111 20.4849 17.9663 20.2691C18.5402 20.0462 19.0263 19.7473 19.5112 19.2618C19.9967 18.7767 20.2949 18.2898 20.5185 17.716C20.7331 17.1609 20.8803 16.5265 20.924 15.5978C20.9658 14.6669 20.9767 14.3702 20.9767 12C20.9767 9.62981 20.9658 9.33236 20.924 8.40145C20.8803 7.47236 20.7331 6.83817 20.5185 6.28327C20.2949 5.70927 19.9967 5.22236 19.5112 4.73727C19.0258 4.25181 18.5403 3.95363 17.9658 3.7309C17.4094 3.51508 16.7749 3.36799 15.8458 3.32545C14.9149 3.28308 14.6185 3.27272 12.2476 3.27272H12.2503ZM11.4674 4.84545C11.6998 4.84508 11.9591 4.84545 12.2503 4.84545C14.5805 4.84545 14.8567 4.85381 15.7769 4.89563C16.6278 4.93454 17.0896 5.07672 17.3972 5.19617C17.8045 5.35436 18.0949 5.54345 18.4002 5.8489C18.7056 6.15436 18.8947 6.44527 19.0532 6.85254C19.1727 7.15981 19.3151 7.62163 19.3538 8.47254C19.3956 9.39254 19.4047 9.6689 19.4047 11.998C19.4047 14.3271 19.3956 14.6034 19.3538 15.5234C19.3149 16.3744 19.1727 16.8362 19.0532 17.1434C18.8951 17.5507 18.7056 17.8407 18.4002 18.146C18.0947 18.4514 17.8047 18.6405 17.3972 18.7987C17.09 18.9187 16.6278 19.0605 15.7769 19.0994C14.8569 19.1413 14.5805 19.1504 12.2503 19.1504C9.91997 19.1504 9.64379 19.1413 8.72379 19.0994C7.87288 19.0602 7.41107 18.918 7.10325 18.7985C6.69598 18.6404 6.40507 18.4513 6.09961 18.1458C5.79416 17.8404 5.60507 17.5502 5.44652 17.1427C5.32707 16.8354 5.1847 16.3736 5.14598 15.5227C5.10416 14.6027 5.09579 14.3264 5.09579 11.9958C5.09579 9.66527 5.10416 9.39036 5.14598 8.47036C5.18488 7.61945 5.32707 7.15763 5.44652 6.84999C5.6047 6.44272 5.79416 6.15181 6.09961 5.84636C6.40507 5.5409 6.69598 5.35181 7.10325 5.19327C7.41088 5.07327 7.87288 4.93145 8.72379 4.89236C9.52888 4.85599 9.84088 4.84508 11.4674 4.84327V4.84545ZM16.9089 6.29454C16.3307 6.29454 15.8616 6.76308 15.8616 7.34145C15.8616 7.91963 16.3307 8.38872 16.9089 8.38872C17.4871 8.38872 17.9562 7.91963 17.9562 7.34145C17.9562 6.76327 17.4871 6.29417 16.9089 6.29417V6.29454ZM12.2503 7.51817C9.77525 7.51817 7.76852 9.5249 7.76852 12C7.76852 14.4751 9.77525 16.4809 12.2503 16.4809C14.7254 16.4809 16.7314 14.4751 16.7314 12C16.7314 9.5249 14.7252 7.51817 12.2502 7.51817H12.2503ZM12.2503 9.0909C13.8569 9.0909 15.1594 10.3933 15.1594 12C15.1594 13.6065 13.8569 14.9091 12.2503 14.9091C10.6436 14.9091 9.34125 13.6065 9.34125 12C9.34125 10.3933 10.6436 9.0909 12.2503 9.0909V9.0909Z" fill="white"/>
</g>
<defs>
<radialGradient id="paint0_radial_873_304" cx="0" cy="0" r="1" gradientUnits="userSpaceOnUse" gradientTransform="translate(6.71114 25.6365) rotate(-90) scale(23.4234 21.7915)">
<stop stop-color="#FFDD55"/>
<stop offset="0.1" stop-color="#FFDD55"/>
<stop offset="0.5" stop-color="#FF543E"/>
<stop offset="1" stop-color="#C837AB"/>
</radialGradient>
<radialGradient id="paint1_radial_873_304" cx="0" cy="0" r="1" gradientUnits="userSpaceOnUse" gradientTransform="translate(-3.52844 1.8844) rotate(78.6776) scale(10.4705 43.1706)">
<stop stop-color="#3771C8"/>
<stop offset="0.128" stop-color="#3771C8"/>
<stop offset="1" stop-color="#6600FF" stop-opacity="0"/>
</radialGradient>
<clipPath id="clip0_873_304">
<rect width="24.0007" height="24" fill="white" transform="translate(0.249634)"/>
</clipPath>
</defs>
</svg>
