<svg width="24" height="24" viewBox="0 0 24 24" fill="none" xmlns="http://www.w3.org/2000/svg">
<path d="M0 12C0 6.34315 0 3.51472 1.75736 1.75736C3.51472 0 6.34315 0 12 0V0C17.6569 0 20.4853 0 22.2426 1.75736C24 3.51472 24 6.34315 24 12V12C24 17.6569 24 20.4853 22.2426 22.2426C20.4853 24 17.6569 24 12 24V24C6.34315 24 3.51472 24 1.75736 22.2426C0 20.4853 0 17.6569 0 12V12Z" fill="#E95A29"/>
<path d="M11.3227 3L6 13.2657H9.13597L11.3227 9.184L13.4918 13.2657H16.6031L11.3227 3Z" fill="white"/>
<path d="M16.6031 13.2657L15.0598 16.3664L13.4918 13.2657H11.1152L15.0598 21L18.9797 13.2657H16.6031Z" fill="#FFAF8A"/>
</svg>
