<svg width="25" height="24" viewBox="0 0 25 24" fill="none" xmlns="http://www.w3.org/2000/svg">
<g clip-path="url(#clip0_2605_495)">
<path d="M0.499512 12C0.499512 6.34315 0.499512 3.51472 2.25687 1.75736C4.01423 0 6.84266 0 12.4995 0V0C18.1564 0 20.9848 0 22.7422 1.75736C24.4995 3.51472 24.4995 6.34315 24.4995 12V12C24.4995 17.6569 24.4995 20.4853 22.7422 22.2426C20.9848 24 18.1564 24 12.4995 24V24C6.84266 24 4.01423 24 2.25687 22.2426C0.499512 20.4853 0.499512 17.6569 0.499512 12V12Z" fill="#1D9BF0"/>
<path d="M18.6154 8.61305C18.6248 8.74865 18.6248 8.88425 18.6248 9.0211C18.6248 13.1909 15.4504 18.0001 9.64582 18.0001V17.9976C7.93114 18.0001 6.25208 17.5089 4.80859 16.5828C5.05792 16.6128 5.3085 16.6278 5.5597 16.6284C6.98069 16.6297 8.36106 16.1529 9.47898 15.2749C8.1286 15.2493 6.94445 14.3689 6.53077 13.0835C7.00381 13.1747 7.49122 13.156 7.95551 13.0291C6.48328 12.7317 5.4241 11.4381 5.4241 9.93593C5.4241 9.92218 5.4241 9.90906 5.4241 9.89593C5.86277 10.1403 6.35393 10.2759 6.85634 10.2909C5.46972 9.36416 5.0423 7.5195 5.87964 6.07727C7.48185 8.04878 9.84578 9.2473 12.3834 9.37416C12.1291 8.27811 12.4765 7.12957 13.2964 6.35909C14.5674 5.16431 16.5664 5.22555 17.7612 6.49594C18.4679 6.35659 19.1453 6.09727 19.7652 5.72983C19.5296 6.46032 19.0366 7.08083 18.3779 7.47513C19.0035 7.4014 19.6146 7.23393 20.1901 6.97835C19.7664 7.61323 19.2328 8.16626 18.6154 8.61305Z" fill="white"/>
</g>
<defs>
<clipPath id="clip0_2605_495">
<rect width="24" height="24" fill="white" transform="translate(0.499512)"/>
</clipPath>
</defs>
</svg>
